<svg xmlns="http://www.w3.org/2000/svg" viewBox="0 0 400 140"><defs><style>.cls-2{fill:#fff}.cls-6{stroke-width:2px;fill:none}.cls-5{fill:#e5e5e5}.cls-6{stroke:#868787;stroke-miterlimit:10}.cls-7{fill:#5558af}</style></defs><g id="ICONS"><path stroke-width="2" stroke-linecap="round" stroke-linejoin="round" stroke="#556a8a" fill="#fff" d="M134 26h124v97H134z"/><path class="cls-2" d="M196 121a13.75 13.75 0 00-9-4h-42V20h43c7 0 8 10 8 10s1-10 8-10h43v97h-42a13.75 13.75 0 00-9 4"/><path fill="#2bc7f4" d="M195 27h2v93.32h-2z"/><path d="M196 121a13.75 13.75 0 00-9-4h-42V20h43c7 0 8 10 8 10s1-10 8-10h43v97h-42a13.75 13.75 0 00-9 4" fill="none" stroke-width="2" stroke-linecap="round" stroke-linejoin="round" stroke="#556a8a"/><path class="cls-5" d="M146 21h15v95h-15zm85 0h15v95h-15z"/><path class="cls-6" d="M212 74h26"/><circle class="cls-7" cx="205" cy="74" r="2"/><path class="cls-6" d="M212 88h26"/><circle class="cls-7" cx="205" cy="88" r="2"/><path class="cls-6" d="M212 102h26"/><circle class="cls-7" cx="205" cy="102" r="2"/><path class="cls-6" d="M161 74h26"/><circle class="cls-7" cx="154" cy="74" r="2"/><path class="cls-6" d="M161 88h26"/><circle class="cls-7" cx="154" cy="88" r="2"/><path class="cls-6" d="M161 102h26m-26-56h26m-26 14h26"/><circle class="cls-7" cx="154" cy="102" r="2"/><path stroke="#8b9908" stroke-miterlimit="10" fill="none" stroke-width="2" d="M206 48l10 10 20-26"/><path class="cls-2" d="M145 67.63a27.65 27.65 0 1119.54-8.1 27.45 27.45 0 01-19.54 8.1z"/><path class="cls-5" d="M125.38 20a27.41 27.41 0 0138.77 38.77z"/><path d="M145 13.91a26.11 26.11 0 11-18.44 7.64A25.92 25.92 0 01145 13.91m0-2a28.11 28.11 0 1019.86 8.23A28 28 0 00145 11.91z" fill="#556a8a"/><path fill="#999bcd" d="M128.34 23.34l11.53 21.79 21.79 11.53-13.94-20.28-19.38-13.04z"/><path fill="#7779bd" d="M128.34 23.34l33.32 33.32-11.53-21.79-21.79-11.53z"/><path fill="none" d="M116 11h58v58h-58z"/><path d="M145 16.44v6.34m0 34.44v6.34m-23.56-24.47h6.34m34.44 0h6.34" stroke-miterlimit="10" stroke="#556a8a" stroke-width="2" fill="#fff"/><circle class="cls-2" cx="145" cy="40" r="2.72"/></g></svg>