<svg xmlns="http://www.w3.org/2000/svg" viewBox="0 0 400 140"><defs><style>.cls-8{fill:#fff}.cls-11{stroke:#2bc7f4}.cls-10,.cls-11,.cls-3,.cls-8{stroke-miterlimit:10;stroke-width:2px}.cls-10,.cls-11,.cls-3{fill:none}.cls-3,.cls-8{stroke:#556a8a}.cls-6{fill:#556a8a}.cls-9{fill:#2bc7f4}.cls-10{stroke:#fff}</style></defs><g id="ICONS"><path d="M283 40.21c-1-12.73-11-22.71-23.06-22.71-9 0-16.75 5.49-20.59 13.51a22.42 22.42 0 00-12.3-3.68c-10.92 0-27.1 9.72-26.69 27.61-2.1-.7-12.1-.14-14.42-.14-12 0-10.17.3-10.17 12.81a22.73 22.73 0 0012.55 20.52 20 20 0 006.77 2l.55.05a125.83 125.83 0 0013.92.88h70.36c1.56 0 3.09-.75 4.56-1.12 10.81-2.24 19-12.46 19-24.73-.01-12.83-8.93-23.41-20.48-25z" fill="#8cd6ef"/><path d="M145.62 68.54h3c-1.49-3.73-3-8.21-3-11.94A27.53 27.53 0 01173.21 29 26.76 26.76 0 01200 52.87a29.9 29.9 0 0120.88-8.95c14.16 0 26.83 11.94 27.58 26.11a37.22 37.22 0 018.94-1.49c15.66 0 27.59 11.94 27.59 27.6 0 14.92-11.93 26.86-27.59 26.86H145.62C130.71 123 118 111.06 118 96.14a27.53 27.53 0 0127.58-27.6" stroke-miterlimit="10" stroke-width="2" stroke="#2bc7f4" fill="#fff"/><path class="cls-3" d="M256.14 37h15.72a4.21 4.21 0 014.14 4.27v9c0 2.36-1.85 3.72-4.14 3.72h-8.64L259 59v-5h-2.86c-2.29 0-4.14-1.36-4.14-3.72v-9a4.21 4.21 0 014.14-4.28z"/><path d="M157 63a29 29 0 10-29 29 29 29 0 0029-29z" fill="#fff"/><path d="M123.52 34.5a29.71 29.71 0 00-22.75 19.83c-.3.89-.55 1.79-.76 2.67h58c-.2-.88-.46-1.78-.76-2.67a29.72 29.72 0 00-22.79-19.83z" fill="#bad80a"/><path class="cls-3" d="M158 63.5a29 29 0 10-29 29 29 29 0 0029-29z"/><path class="cls-6" d="M128 46.79h2v.14h-2z"/><path class="cls-6" d="M129.07 76l-13.63-13.63 1.42-1.41L128 72.1V43.07h2v29.17l11.14-11.14 1.42 1.41L129.07 76z"/><path fill="none" d="M97 32h64v64H97z"/><path class="cls-6" d="M116 79h26v2h-26z"/><path class="cls-8" d="M225 59h-50a4 4 0 00-4 4v37a4 4 0 004 4h5v11l11-11h38V63a4 4 0 00-4-4z"/><path class="cls-9" d="M231 85h-28a3 3 0 00-3 3v21a3 3 0 003 3h3v8l8-8h17a3 3 0 003-3V88a3 3 0 00-3-3z"/><circle class="cls-10" cx="218" cy="95" r="5"/><path class="cls-10" d="M210 108a8 8 0 0116 0"/><path class="cls-11" d="M177 68h19m-19 6h40m-40 6h40"/><path class="cls-8" d="M225 59h-50a4 4 0 00-4 4v37a4 4 0 004 4h5v11l11-11h38V63a4 4 0 00-4-4z"/><path class="cls-9" d="M231 85h-28a3 3 0 00-3 3v21a3 3 0 003 3h3v8l8-8h17a3 3 0 003-3V88a3 3 0 00-3-3z"/><circle class="cls-10" cx="218" cy="95" r="5"/><path class="cls-10" d="M210 108a8 8 0 0116 0"/><path class="cls-11" d="M177 68h19m-19 6h40m-40 6h40"/></g></svg>