<svg xmlns="http://www.w3.org/2000/svg" viewBox="0 0 400 140"><defs><style>.cls-1,.cls-8{fill:none}.cls-1{stroke:#757575}.cls-1,.cls-8{stroke-miterlimit:10}.cls-2{fill:#757575}.cls-8{stroke-width:2px}.cls-4{fill:#556a8a}.cls-8{stroke:#556a8a}.cls-16,.cls-18{fill:#5558af}.cls-16{fill-rule:evenodd}.cls-17{fill:#7779bd}</style></defs><g id="ICONS"><path class="cls-1" d="M197.42 23.45l6.91-6.9h42.94l6.59 6.58m-40.36-.84v-5.5m-6 5.5v-5.5m13 5.46v-5.5m14 5.5v-5.5m-7 5.5v-5.5m14 5.5v-5.5"/><path class="cls-2" d="M187.25 9.07l1.06-.31 4.74 13.6h-1.37l-4.43-13.29z"/><path stroke-width="2" stroke-miterlimit="10" stroke="#757575" fill="none" d="M187 9.5V24"/><path class="cls-2" d="M188.47 9.07a.85.85 0 01-.92.76.76.76 0 110-1.53.85.85 0 01.92.76M195.41 33h-.91l-4.19 3.82-4.17-3.82h-.83v.59l4.26 3.91-4.26 3.91V42h.83l4.17-3.82L194.5 42h.91v-.53l-4.36-3.97 4.36-3.97V33z"/><path class="cls-2" d="M185 32h1v95h-1zm10 1h1v93h-1z"/><path class="cls-1" d="M185.41 43l10 9m0-9l-10 9m10 10l-10-9m10 0l-10 9m0 1l10 9m0-9l-10 9m0 1l10 9m0-9l-10 9m0 1l10 9m0-9l-10 9m0 1l10 9m0-9l-10 9m0 1l10 9m0-9l-10 9m22-95l6.5 5 7-5 7 5 7-5 7 5 5.5-5"/><path class="cls-4" d="M168.41 22.02h101v1.96h-101z"/><path class="cls-4" d="M264.71 23.11a.71.71 0 00-.7.61V24h-5.21v-.28a.7.7 0 00-1.4 0V28h8v-4.28a.71.71 0 00-.69-.61z"/><path class="cls-1" d="M170.96 21.11l16.59-11.74 46.47 7.19"/><path class="cls-4" d="M167 20h6v11h-6z"/><path class="cls-1" d="M185.41 52.5h10m-10-10h10m-10-10h10"/><path class="cls-4" d="M197.44 23h-14.35v10h14.35l2.56-5-2.56-5z"/><path d="M190 25v6m4-6v6" stroke="#2bc7f4" stroke-width="2" stroke-miterlimit="10" fill="none"/><path class="cls-1" d="M185.41 62.5h10m-10 10h10m-10 10h10m-10 10h10m-10 10h10m-10 9l10 9m0-9l-10 9m0-9h10m-10 10h10"/><path fill="none" d="M153.41 2h111v136h-111z"/><path fill="#868787" d="M214.41 133h-48l2.58-6 2.57-6h37.7l2.58 6 2.57 6z"/><path class="cls-4" d="M214.41 133h-48l2.58-6h42.85l2.57 6z"/><path class="cls-8" d="M262 26v36"/><path d="M183.44 108h-57.72c-5.53 0-9 0-11.59-.27h-.5a18.27 18.27 0 01-5.87-1.61l-.3-.13A19.85 19.85 0 01120 68.55a21.57 21.57 0 0120.11-14.32 21 21 0 019.32 2.18 20.78 20.78 0 0117.66-9.92c10.29 0 19.12 7.87 20.73 18.18a22 22 0 01-.18 42.84 18 18 0 01-4.2.49z" fill="#f1f2f2" stroke="#bad80a" stroke-width="2" stroke-miterlimit="10"/><path d="M163.33 95.62h-2.4v2.08a1.57 1.57 0 00.76.22h.76a2.56 2.56 0 00.87-.22z" fill="#008a00"/><path d="M164 69.38a6.71 6.71 0 00-4.08-6.11v4.43L157 69.94l-2.92-2.24v-4.43a6.71 6.71 0 00-4.08 6.11 7.39 7.39 0 004 6.62v19a2.49 2.49 0 002.42 2.38h.58a2.15 2.15 0 002-2.38V76a7.43 7.43 0 005-6.62z" fill="#fff" stroke="#556a8a" stroke-width="2" stroke-miterlimit="10"/><path d="M175 82h-3V70.56l2-2.56-2-5h-2l-2 5 2 2.56V82h-3v4h1.71a2.18 2.18 0 01-1.71 2v7c0 1.85 1.12 3.08 2.29 3.08h3.43c1.17 0 2.29-1.51 2.29-3.36v-6.8a2.08 2.08 0 01-1.72-1.92H175z" fill="#2bc7f4"/><path d="M169 87h1v9.52h-1zm3 0h1v9.52h-1zm-24.26 3.2c-.32-.81-1.2-2.81-2.18-5-1.4-3.15-3-6.68-3.53-7.86V68a4.21 4.21 0 00.73-2.06 1 1 0 00-1.09-1h-6.53a1 1 0 00-1.09 1 4.21 4.21 0 00.73 2.06v9.27c-.54 1.18-2.13 4.71-3.53 7.86-1 2.22-1.86 4.22-2.18 5a6 6 0 00-.08 4.4 3.14 3.14 0 002.65 2.27h13.53a3.14 3.14 0 002.65-2.27 6 6 0 00-.08-4.33z" fill="#fff"/><path d="M146.37 85h-14.9c-1.18 2.57-1.89 4.16-2.17 4.84a5.54 5.54 0 00-.09 4.2 3.07 3.07 0 002.62 2.16H146a3.07 3.07 0 002.63-2.2 5.54 5.54 0 00-.09-4.2c-.28-.64-.99-2.23-2.17-4.8z" fill="#55d2f6"/><path class="cls-8" d="M147.74 90.2c-.32-.81-1.2-2.81-2.18-5-1.4-3.15-3-7-3.57-8.17V68a3.89 3.89 0 00.76-2 1 1 0 00-1.09-1h-6.53a1 1 0 00-1.09 1 3.53 3.53 0 00.94 2v9c-.54 1.18-2.35 5-3.75 8.17-1 2.22-1.86 4.22-2.18 5a6 6 0 00-.08 4.4 3.14 3.14 0 002.65 2.27h13.53a3.14 3.14 0 002.65-2.27 6 6 0 00-.06-4.37z"/><path d="M140.62 67.21h-5c-.17 0-.31-.23-.31-.51s.14-.51.31-.51h5c.17 0 .31.23.31.51 0 .3-.14.51-.31.51z" fill="#e5e5e5"/><path class="cls-16" d="M162.82 88h-19.64a2.15 2.15 0 00-2.18 2.17v6.72a2.22 2.22 0 002.18 2.24h19.64a2.22 2.22 0 002.18-2.24v-6.72a2.15 2.15 0 00-2.18-2.17zm.18 6h-20v-4h20z"/><path class="cls-16" d="M184 95.77V107h-61V95.77a3.37 3.37 0 013.36-3.36h54.32a3.33 3.33 0 013.32 3.36z"/><path class="cls-17" d="M184 95.36V96l-61-.08v-.56a3.37 3.37 0 013.36-3.36h54.32a3.37 3.37 0 013.32 3.36zM231 65h43v20h-43z"/><path class="cls-18" d="M277 65h20v20h-20zm-46 23h20v20h-20z"/><path class="cls-17" d="M254 88h20v20h-20z"/><path class="cls-18" d="M277 88h20v20h-20z"/></g></svg>