<svg xmlns="http://www.w3.org/2000/svg" viewBox="0 0 400 140"><defs><style>.cls-3{fill:#556a8a}.cls-5{fill:#fff}</style></defs><path d="M287.3 51.84l-3.79-.54c-.27-.81-.27-1.62-.54-2.43l3.25-1.87a1 1 0 00.54-1.35l-1.08-2.16c0-.54-.54-.81-1.08-.81l-3.79 1.08a5.89 5.89 0 00-1.35-2.16l2.17-3.24a.82.82 0 000-1.08l-1.89-1.89a.82.82 0 00-1.08 0l-3.25 2.16c-.54-.54-1.35-.81-1.89-1.35l.81-3.79c.27-.27 0-.81-.54-1.08l-2.17-.81a1.19 1.19 0 00-1.35.27L268.35 34c-.81-.27-1.62-.27-2.71-.54l-.54-3.79a.86.86 0 00-.81-.81h-2.71a.86.86 0 00-.81.81l-.54 3.79c-.81.27-1.62.27-2.44.54l-1.89-3.24c-.27-.54-.81-.54-1.35-.54l-2.44 1.08c-.27 0-.54.54-.54 1.08l1.08 3.79a5.89 5.89 0 00-2.17 1.35l-3.25-2.16a.82.82 0 00-1.08 0l-1.89 1.89a.82.82 0 000 1.08l2.17 3.24c-.54.54-.81 1.35-1.35 1.89l-3.79-.81c-.27-.27-.81 0-1.08.54l-1.08 2.16c0 .54 0 1.08.54 1.35l3.25 1.89c-.27.81-.27 1.89-.54 2.7l-3.79.54a.86.86 0 00-.81.81v2.7a.72.72 0 00.81.81l3.79.54a7.89 7.89 0 00.54 2.43L239.66 61a1 1 0 00-.54 1.35l1.08 2.43c0 .27.54.54 1.08.54l3.79-1.08a5.89 5.89 0 001.35 2.16l-2.17 3.24a1.21 1.21 0 000 1.35l1.89 1.62c.27.27.81.54 1.08.27l3.25-2.43a4.86 4.86 0 001.89 1.35l-.81 3.79c-.27.27 0 .81.54 1.08l2.17 1.08c.54 0 1.08 0 1.35-.54l1.92-3.21a8 8 0 002.71.54l.54 3.79a.86.86 0 00.81.81h2.71a.86.86 0 00.81-.81l.54-3.79a7.91 7.91 0 002.44-.54l1.91 3.25a1 1 0 001.35.54l2.44-1.08c.27 0 .54-.54.54-1.08l-1.08-3.79a5.89 5.89 0 002.17-1.35l3.25 2.43c.27.27.81 0 1.08-.27l1.87-1.65a1.21 1.21 0 000-1.35l-2.17-3.24a11.45 11.45 0 001.35-1.89l3.79 1.08a1.45 1.45 0 001.08-.81l1.08-2.16c0-.54 0-1.08-.54-1.35L283 59.41c.27-.81.27-1.62.54-2.7l3.79-.54a.72.72 0 00.81-.81v-2.7a.86.86 0 00-.81-.81zm-8.93 6.22a1.25 1.25 0 01-1.89.81l-6.23-4.06c-.81-.27-.81-1.08 0-1.62l6.23-4.06a1.4 1.4 0 011.89.81 19.71 19.71 0 01.54 4.06 16.56 16.56 0 01-.54 4.06zm-1.62-12.17a1.24 1.24 0 01-.81 1.89l-7.31 1.62c-.81.27-1.35-.27-1.08-1.08l1.62-7.3c.27-1.08 1.08-1.35 1.89-.81a17.88 17.88 0 013.25 2.43 17.86 17.86 0 012.44 3.24zm-17.87-7.57a15.51 15.51 0 018.12 0 1.24 1.24 0 01.81 1.89l-4.06 6.49c-.54.81-1.35.81-1.62 0l-4.06-6.49a1.24 1.24 0 01.81-1.89zM267 54a4.06 4.06 0 01-8.12 0 4.07 4.07 0 018.12 0zm-12.18-14.06a1.25 1.25 0 011.89.81l1.62 7.3c.27.81-.27 1.35-1.35 1.35l-7-1.89c-1.08-.27-1.35-1.08-.81-1.89a9.76 9.76 0 012.44-3.24 17.88 17.88 0 013.25-2.43zm-7.58 17.85a16.56 16.56 0 01-.54-4.06 19.71 19.71 0 01.54-4.06 1.16 1.16 0 011.89-.54l6.5 3.79a1 1 0 010 1.89l-6.5 3.79c-.81.54-1.62.27-1.89-.81zm1.62 4.33a1.19 1.19 0 01.81-1.89l7.33-1.9c.81-.27 1.35.27 1.35 1.35L256.44 67a1.4 1.4 0 01-1.89.81 17.88 17.88 0 01-3.25-2.43 44.823 44.823 0 01-2.44-3.24zm17.87 7.3a16.61 16.61 0 01-4.06.54 19.77 19.77 0 01-4.06-.54 1.4 1.4 0 01-.81-1.89l4.06-6.22c.54-.81 1.35-.81 1.62 0l4.06 6.22c.54.81.27 1.62-.81 1.89zm4.06-1.62c-.81.54-1.62.27-1.89-.81l-1.62-7.3c-.27-.81.27-1.35 1.35-1.08l7.31 1.62a1.4 1.4 0 01.81 1.89 17.86 17.86 0 01-2.44 3.24 28.06 28.06 0 01-3.52 2.43z" fill="#b2b2b2" fill-rule="evenodd" id="ICONS"/><g id="Titles"><path d="M182 19.17h84a30.09 30.09 0 0130 30V59a30.09 30.09 0 01-30 30h-81c-16.5 0-30 5.89-30 13.08s13.5 13.08 30 13.08h132.83" stroke-dasharray="3 3" stroke-miterlimit="10" stroke-width="2" stroke="#556a8a" fill="none"/><path class="cls-3" d="M311.2 123.35l-1.36-1.47 7.22-6.71-7.22-6.72 1.36-1.46 8.8 8.18-8.8 8.18z"/><circle cx="179.33" cy="71.5" r="53.5" stroke="#2bc7f4" fill="#fff" stroke-miterlimit="10" stroke-width="2"/><path class="cls-5" d="M188.55 65.88c-1-12.73-11-22.71-23.06-22.71-9 0-16.75 5.49-20.59 13.51A22.42 22.42 0 00132.6 53c-10.92 0-20.12 7.93-22.89 18.71a20.94 20.94 0 00-6.65-1.08c-12 0-21.75 10.14-21.75 22.65a22.73 22.73 0 0012.56 20.52 20 20 0 006.77 2l.55.05a125.83 125.83 0 0013.92.88h70.36c1.56 0 3.09-.75 4.56-1.12 10.81-2.24 19-12.46 19-24.73-.03-12.88-8.94-23.41-20.48-25z"/><path d="M188.55 65.88c-1-12.73-11-22.71-23.06-22.71-9 0-16.75 5.49-20.59 13.51A22.42 22.42 0 00132.6 53c-10.92 0-20.12 7.93-22.89 18.71a20.94 20.94 0 00-6.65-1.08c-12 0-21.75 10.14-21.75 22.65a22.73 22.73 0 0012.56 20.52 20 20 0 006.77 2l.55.05a125.83 125.83 0 0013.92.88h70.36c1.56 0 3.09-.75 4.56-1.12 10.81-2.24 19-12.46 19-24.73-.03-12.88-8.94-23.41-20.48-25z" fill="#55d2f6" opacity=".8"/><path d="M134.79 110.73c-.92.3-1.9.58-2.92.86 6.12-25.42 18.19-20.82 18.19-20.82l2 1.86.07.24c.4 1.68 2.04 11.71-17.34 17.86z" fill="#ff9f2b"/><path d="M134.79 110.73c6-20.93 16.27-18.2 17.32-17.86.42 1.68 2.06 11.71-17.32 17.86z" fill="#ff8c00"/><path class="cls-3" d="M153.06 97.67l-8.55-8.55 6.84-1.71 3.21 3.22-1.5 7.04zm1.71-18.95l-23.1-.86-3.42-3.42 19.68-9.41 8.22 3.09-1.38 10.6zm9.78 6.98l.85 23.1 3.43 3.42 9.41-19.68-3.09-8.22-10.6 1.38z"/><path class="cls-5" d="M159.94 95.88h-.26l-.2-.19L147.29 83l.05-.3a50.51 50.51 0 0113.86-24.54c11.07-11 36.87-15.64 38-15.83l.84-.15-.14.84s-.45 2.69-1.38 6.6c-2.51 10.57-7 24.68-14.2 31.9-11.21 11.24-23.32 14.36-24.38 14.36z"/><path d="M197.82 51.1c-2 8.6-6.49 23.51-14 31.1-11.16 11.23-23.29 13.56-23.92 13.69l-6.8-6.8s2.17-12.49 13.7-24c7.54-7.5 22.41-11.94 31.02-13.99z" fill="#e5e5e5"/><path d="M200 42a153.16 153.16 0 00-23 6l17 17a153.16 153.16 0 006-23z" fill="#5558af"/><path d="M159.94 95.88h-.26l-.2-.19L147.29 83l.05-.3a50.51 50.51 0 0113.86-24.54c11.07-11 36.87-15.64 38-15.83l.84-.15-.14.84s-.45 2.69-1.38 6.6c-2.51 10.57-7 24.68-14.2 31.9-11.21 11.24-23.32 14.36-24.38 14.36z" stroke-miterlimit="10" stroke-width="2" stroke="#556a8a" fill="none"/><circle cx="171.81" cy="69.87" r="6.05" fill="#fff" stroke-miterlimit="10" stroke-width="2" stroke="#556a8a"/></g></svg>