<svg xmlns="http://www.w3.org/2000/svg" viewBox="0 0 400 140">
  <defs>
    <style>
      .cls-1 {
        fill: #b2b2b2;
        fill-rule: evenodd;
      }

      .cls-11, .cls-2 {
        fill: none;
      }

      .cls-11, .cls-12, .cls-2 {
        stroke: #556a8a;
      }

      .cls-11, .cls-12, .cls-2, .cls-4 {
        stroke-miterlimit: 10;
        stroke-width: 2px;
      }

      .cls-2 {
        stroke-dasharray: 3 3;
      }

      .cls-3 {
        fill: #556a8a;
      }

      .cls-12, .cls-4, .cls-5 {
        fill: #fff;
      }

      .cls-4 {
        stroke: #2bc7f4;
      }

      .cls-6 {
        fill: #55d2f6;
        opacity: 0.8;
      }

      .cls-7 {
        fill: #ff9f2b;
      }

      .cls-8 {
        fill: #ff8c00;
      }

      .cls-9 {
        fill: #e5e5e5;
      }

      .cls-10 {
        fill: #5558af;
      }
    </style>
  </defs>
  <title>team-services-get-started</title>
  <g id="ICONS">
    <path class="cls-1" d="M287.3,51.84l-3.79-.54c-.27-.81-.27-1.62-.54-2.43L286.22,47a1,1,0,0,0,.54-1.35l-1.08-2.16c0-.54-.54-.81-1.08-.81l-3.79,1.08a5.89,5.89,0,0,0-1.35-2.16l2.17-3.24a.82.82,0,0,0,0-1.08l-1.89-1.89a.82.82,0,0,0-1.08,0l-3.25,2.16c-.54-.54-1.35-.81-1.89-1.35l.81-3.79c.27-.27,0-.81-.54-1.08l-2.17-.81a1.19,1.19,0,0,0-1.35.27L268.35,34c-.81-.27-1.62-.27-2.71-.54l-.54-3.79a.86.86,0,0,0-.81-.81h-2.71a.86.86,0,0,0-.81.81l-.54,3.79c-.81.27-1.62.27-2.44.54l-1.89-3.24c-.27-.54-.81-.54-1.35-.54l-2.44,1.08c-.27,0-.54.54-.54,1.08l1.08,3.79a5.89,5.89,0,0,0-2.17,1.35l-3.25-2.16a.82.82,0,0,0-1.08,0l-1.89,1.89a.82.82,0,0,0,0,1.08l2.17,3.24c-.54.54-.81,1.35-1.35,1.89l-3.79-.81c-.27-.27-.81,0-1.08.54l-1.08,2.16c0,.54,0,1.08.54,1.35l3.25,1.89c-.27.81-.27,1.89-.54,2.7l-3.79.54a.86.86,0,0,0-.81.81v2.7a.72.72,0,0,0,.81.81l3.79.54a7.89,7.89,0,0,0,.54,2.43L239.66,61a1,1,0,0,0-.54,1.35l1.08,2.43c0,.27.54.54,1.08.54l3.79-1.08a5.89,5.89,0,0,0,1.35,2.16l-2.17,3.24a1.21,1.21,0,0,0,0,1.35l1.89,1.62c.27.27.81.54,1.08.27l3.25-2.43a4.86,4.86,0,0,0,1.89,1.35l-.81,3.79c-.27.27,0,.81.54,1.08l2.17,1.08c.54,0,1.08,0,1.35-.54L257.53,74a8,8,0,0,0,2.71.54l.54,3.79a.86.86,0,0,0,.81.81h2.71a.86.86,0,0,0,.81-.81l.54-3.79a7.91,7.91,0,0,0,2.44-.54L270,77.25a1,1,0,0,0,1.35.54l2.44-1.08c.27,0,.54-.54.54-1.08l-1.08-3.79a5.89,5.89,0,0,0,2.17-1.35l3.25,2.43c.27.27.81,0,1.08-.27L281.62,71a1.21,1.21,0,0,0,0-1.35l-2.17-3.24a11.45,11.45,0,0,0,1.35-1.89l3.79,1.08a1.45,1.45,0,0,0,1.08-.81l1.08-2.16c0-.54,0-1.08-.54-1.35L283,59.41c.27-.81.27-1.62.54-2.7l3.79-.54a.72.72,0,0,0,.81-.81v-2.7a.86.86,0,0,0-.81-.81Zm-8.93,6.22a1.25,1.25,0,0,1-1.89.81l-6.23-4.06c-.81-.27-.81-1.08,0-1.62l6.23-4.06a1.4,1.4,0,0,1,1.89.81,19.71,19.71,0,0,1,.54,4.06,16.56,16.56,0,0,1-.54,4.06Zm-1.62-12.17a1.24,1.24,0,0,1-.81,1.89l-7.31,1.62c-.81.27-1.35-.27-1.08-1.08l1.62-7.3c.27-1.08,1.08-1.35,1.89-.81a17.88,17.88,0,0,1,3.25,2.43,17.86,17.86,0,0,1,2.44,3.24Zm-17.87-7.57a15.51,15.51,0,0,1,8.12,0,1.24,1.24,0,0,1,.81,1.89l-4.06,6.49c-.54.81-1.35.81-1.62,0l-4.06-6.49a1.24,1.24,0,0,1,.81-1.89ZM267,54a4.06,4.06,0,0,1-8.12,0A4.07,4.07,0,0,1,267,54ZM254.82,39.94a1.25,1.25,0,0,1,1.89.81l1.62,7.3c.27.81-.27,1.35-1.35,1.35l-7-1.89c-1.08-.27-1.35-1.08-.81-1.89a9.76,9.76,0,0,1,2.44-3.24,17.88,17.88,0,0,1,3.25-2.43Zm-7.58,17.85a16.56,16.56,0,0,1-.54-4.06,19.71,19.71,0,0,1,.54-4.06,1.16,1.16,0,0,1,1.89-.54l6.5,3.79a1,1,0,0,1,0,1.89l-6.5,3.79c-.81.54-1.62.27-1.89-.81Zm1.62,4.33a1.19,1.19,0,0,1,.81-1.89L257,58.33c.81-.27,1.35.27,1.35,1.35L256.44,67a1.4,1.4,0,0,1-1.89.81,17.88,17.88,0,0,1-3.25-2.43c-1.35-1.62-2.44-3.24-2.44-3.24Zm17.87,7.3a16.61,16.61,0,0,1-4.06.54,19.77,19.77,0,0,1-4.06-.54,1.4,1.4,0,0,1-.81-1.89l4.06-6.22c.54-.81,1.35-.81,1.62,0l4.06,6.22c.54.81.27,1.62-.81,1.89Zm4.06-1.62c-.81.54-1.62.27-1.89-.81l-1.62-7.3c-.27-.81.27-1.35,1.35-1.08l7.31,1.62a1.4,1.4,0,0,1,.81,1.89,17.86,17.86,0,0,1-2.44,3.24,28.06,28.06,0,0,1-3.52,2.43Z"/>
  </g>
  <g id="Titles">
    <g>
      <path class="cls-2" d="M182,19.17h84a30.09,30.09,0,0,1,30,30V59a30.09,30.09,0,0,1-30,30H185c-16.5,0-30,5.89-30,13.08s13.5,13.08,30,13.08H317.83"/>
      <polygon class="cls-3" points="311.2 123.35 309.84 121.88 317.06 115.17 309.84 108.45 311.2 106.99 320 115.17 311.2 123.35"/>
    </g>
    <circle class="cls-4" cx="179.33" cy="71.5" r="53.5"/>
    <path class="cls-5" d="M188.55,65.88c-1-12.73-11-22.71-23.06-22.71-9,0-16.75,5.49-20.59,13.51A22.42,22.42,0,0,0,132.6,53c-10.92,0-20.12,7.93-22.89,18.71a20.94,20.94,0,0,0-6.65-1.08c-12,0-21.75,10.14-21.75,22.65A22.73,22.73,0,0,0,93.87,113.8a20,20,0,0,0,6.77,2l.55.05a125.83,125.83,0,0,0,13.92.88h70.36c1.56,0,3.09-.75,4.56-1.12,10.81-2.24,19-12.46,19-24.73C209,78,200.09,67.47,188.55,65.88Z"/>
    <path class="cls-6" d="M188.55,65.88c-1-12.73-11-22.71-23.06-22.71-9,0-16.75,5.49-20.59,13.51A22.42,22.42,0,0,0,132.6,53c-10.92,0-20.12,7.93-22.89,18.71a20.94,20.94,0,0,0-6.65-1.08c-12,0-21.75,10.14-21.75,22.65A22.73,22.73,0,0,0,93.87,113.8a20,20,0,0,0,6.77,2l.55.05a125.83,125.83,0,0,0,13.92.88h70.36c1.56,0,3.09-.75,4.56-1.12,10.81-2.24,19-12.46,19-24.73C209,78,200.09,67.47,188.55,65.88Z"/>
    <g>
      <g>
        <g>
          <path class="cls-7" d="M134.79,110.73c-.92.3-1.9.58-2.92.86,6.12-25.42,18.19-20.82,18.19-20.82l2,1.86.07.24C152.53,94.55,154.17,104.58,134.79,110.73Z"/>
          <path class="cls-8" d="M134.79,110.73c6-20.93,16.27-18.2,17.32-17.86C152.53,94.55,154.17,104.58,134.79,110.73Z"/>
          <polygon class="cls-3" points="153.06 97.67 144.51 89.12 151.35 87.41 154.56 90.63 153.06 97.67"/>
        </g>
        <polygon class="cls-3" points="154.77 78.72 131.67 77.86 128.25 74.44 147.93 65.03 156.15 68.12 154.77 78.72"/>
        <polygon class="cls-3" points="164.55 85.7 165.4 108.8 168.83 112.22 178.24 92.54 175.15 84.32 164.55 85.7"/>
        <g>
          <path class="cls-5" d="M159.94,95.88h-.26l-.2-.19L147.29,83l.05-.3a50.51,50.51,0,0,1,13.86-24.54c11.07-11,36.87-15.64,38-15.83l.84-.15-.14.84s-.45,2.69-1.38,6.6c-2.51,10.57-7,24.68-14.2,31.9C173.11,92.76,161,95.88,159.94,95.88Z"/>
          <path class="cls-9" d="M197.82,51.1c-2,8.6-6.49,23.51-14,31.1-11.16,11.23-23.29,13.56-23.92,13.69l-6.8-6.8s2.17-12.49,13.7-24C174.34,57.59,189.21,53.15,197.82,51.1Z"/>
          <path class="cls-10" d="M200,42a153.16,153.16,0,0,0-23,6l17,17A153.16,153.16,0,0,0,200,42Z"/>
          <path class="cls-11" d="M159.94,95.88h-.26l-.2-.19L147.29,83l.05-.3a50.51,50.51,0,0,1,13.86-24.54c11.07-11,36.87-15.64,38-15.83l.84-.15-.14.84s-.45,2.69-1.38,6.6c-2.51,10.57-7,24.68-14.2,31.9C173.11,92.76,161,95.88,159.94,95.88Z"/>
        </g>
      </g>
      <circle class="cls-12" cx="171.81" cy="69.87" r="6.05"/>
    </g>
  </g>
</svg>
