<svg xmlns="http://www.w3.org/2000/svg" viewBox="0 0 400 140"><defs><style>.cls-4{fill:#fff}.cls-5{fill:#2bc7f4}.cls-7{fill:#e5e5e5}.cls-12{fill:#5558af}</style></defs><g id="ICONS"><path d="M139.32 107.39a25.36 25.36 0 01-.2-49.39c1.86-11.89 12-21 23.91-21a24 24 0 0120.38 11.45 24.2 24.2 0 0110.75-2.52c10.36 0 33.33-3.63 30.34 8.46 1.56-.33-4 7.57-2.39 7.57a22.89 22.89 0 019.69 43.64l-.35.15a21.08 21.08 0 01-6.77 1.85l-.57.06c-3 .26-7 .31-13.37.31h-66.61a20.74 20.74 0 01-4.81-.58z" stroke-width="2" stroke-miterlimit="10" stroke="#2bc7f4" fill="#fff"/><path d="M105.81 73.85a28.34 28.34 0 0156-.89 19.29 19.29 0 0131 9.8 16.86 16.86 0 114 33.23h-94.94A21.56 21.56 0 0185 94.92a21.08 21.08 0 0120.81-21.07z" fill="#80cee9" opacity=".7"/><path stroke-linecap="round" stroke-linejoin="round" stroke="#556a8a" stroke-width="2" fill="#fff" d="M167 24h124v97H167z"/><path class="cls-4" d="M229 119a13.75 13.75 0 00-9-4h-42V18h43c7 0 8 10 8 10s1-10 8-10h43v97h-42a13.75 13.75 0 00-9 4"/><path class="cls-5" d="M228 25.5h2v93.32h-2z"/><path d="M229 120a13.75 13.75 0 00-9-4h-42V19h43c7 0 8 10 8 10s1-10 8-10h43v97h-42a13.75 13.75 0 00-9 4" fill="none" stroke-linecap="round" stroke-linejoin="round" stroke="#556a8a" stroke-width="2"/><path class="cls-7" d="M179 20h15v95h-15zm85 0h15v95h-15z"/><path class="cls-4" d="M178 96.49a30.51 30.51 0 1121.56-8.93A30.29 30.29 0 01178 96.49z"/><path class="cls-7" d="M156.35 43.93a30.25 30.25 0 0142.78 42.78z"/><path d="M178 37a29 29 0 11-20.5 8.49A28.8 28.8 0 01178 37m0-2a31 31 0 1021.91 9.08A30.89 30.89 0 00178 35z" fill="#556a8a"/><path fill="#55d2f6" d="M159.62 47.62l12.72 24.04 24.04 12.73L181 62l-21.38-14.38z"/><path class="cls-5" d="M159.62 47.62l36.76 36.77-12.72-24.05-24.04-12.72z"/><path fill="none" d="M146 34h64v64h-64z"/><path d="M178 40v7m0 38v7m-26-27h7m38 0h7" stroke-miterlimit="10" stroke-width="2" stroke="#556a8a" fill="#fff"/><circle class="cls-4" cx="178" cy="66" r="3"/><path class="cls-12" d="M265 65.63a5.07 5.07 0 001.49 1 5 5 0 003.69 0 4.67 4.67 0 002.5-2.5 5 5 0 000-3.69 4.67 4.67 0 00-2.5-2.5 5 5 0 00-3.69 0 4.67 4.67 0 00-2.5 2.5 5 5 0 000 3.69 5.07 5.07 0 001.01 1.5zM264 69v15h1.85a11.31 11.31 0 002.44-.24 6.39 6.39 0 002.32-.83 5.89 5.89 0 001.73-1.49 3.81 3.81 0 00.65-2.38V69zm-8-5.59a4.85 4.85 0 001.85-.36 4.67 4.67 0 002.5-2.5 5 5 0 000-3.69 4.67 4.67 0 00-2.5-2.5 4.95 4.95 0 00-3.69 0 6.31 6.31 0 00-1.19.71v7.33a4 4 0 001.19.71 6.64 6.64 0 001.84.3zm-3 24.17c.6.12.83.24 1.25.3a11.63 11.63 0 001.37.12 8.77 8.77 0 002.14-.24 6 6 0 002-.77 5.26 5.26 0 001.55-1.49 4.18 4.18 0 00.6-2.38V67H253z"/><path class="cls-4" d="M228 59h18v23h-18z"/><path class="cls-12" d="M220 50.36V92l31 5.36V45zm22.63 14.29l-5.36.24v15.66l-3.57-.24V65l-5.36.24V62l14.29-.89z"/></g></svg>