<svg id="Screenshot" xmlns="http://www.w3.org/2000/svg" viewBox="0 0 400 140"><defs><style>.cls-1{fill:#556a8a}.cls-4{fill:#e5e5e5}</style></defs><path class="cls-1" d="M260 126H143l7.32-8h102.83l6.85 8z"/><path fill="#adbdca" d="M249 124h-95l3.34-4h88.42l3.24 4z"/><path class="cls-1" d="M227 106h-52l-6 7h64l-6-7z"/><path class="cls-1" d="M204.5 111h-7l1.4-14h4.2l1.4 14z"/><rect x="125.25" y="16.5" width="37.5" height="20.5" rx="4" ry="4" transform="rotate(180 200.25 57.5)" fill="#fff"/><path class="cls-4" d="M275.75 21v12h-150V21a4 4 0 014-4h142.03a4 4 0 013.97 4z"/><rect x="125.25" y="17" width="150" height="82" rx="4" ry="4" transform="rotate(180 200.25 58)" stroke-width="2" stroke-miterlimit="10" stroke="#556a8a" fill="none"/><path fill="none" d="M110.75 8.5h183v127h-183z"/><path d="M107.8 20.31a20 20 0 11-1.55 7.8 19.77 19.77 0 011.55-7.8z" fill="#c6df33" stroke="#bad80a" stroke-width="2" stroke-miterlimit="10"/><path stroke-linecap="round" stroke-linejoin="round" fill-rule="evenodd" stroke-width="2" stroke="#556a8a" fill="none" d="M112.25 30l9 9 19-19"/><path class="cls-4" d="M250.77 40.19a8.7 8.7 0 00-3.68 2.64L241.3 27.4l-15.44 5.79a8.75 8.75 0 10-14.17 5.32l-15.44 5.79 6.42 17.12a8.75 8.75 0 114.06 10.81l6.42 17.12 45-16.9L252.41 57a8.75 8.75 0 10-1.64-16.81z"/><path d="M247.43 38.85a8.7 8.7 0 00-3.68 2.64L238 26.05l-15.44 5.79a8.75 8.75 0 10-14.17 5.32L192.91 43l6.42 17.12a8.75 8.75 0 114.06 10.81L209.81 88l45-16.9-5.79-15.44a8.75 8.75 0 10-1.64-16.81z" fill="#2bc7f4"/><path class="cls-4" d="M185.43 65.85a8.7 8.7 0 00-3.68 2.64L176 53.05l-17.12 6.42A8.75 8.75 0 11148 63.53L130.91 70l16.9 45 15.44-5.79 1.68-.63a8.75 8.75 0 1110.81-4.06l1.68-.63 15.44-5.79-5.79-15.44a8.75 8.75 0 10-1.64-16.81z"/><path d="M186.43 62.8a8.7 8.7 0 00-3.68 2.64L177 50l-17.12 6.42A8.75 8.75 0 11149 60.48l-17.09 6.42 16.9 45 15.44-5.79 1.68-.63a8.75 8.75 0 1110.81-4.06l1.68-.63L193.85 95l-5.79-15.44a8.75 8.75 0 10-1.64-16.81z" fill="#80cee9"/></svg>