<svg id="Screenshot" xmlns="http://www.w3.org/2000/svg" viewBox="0 0 400 140"><defs><style>.cls-1{fill:#556a8a}</style></defs><path class="cls-1" d="M266.84 130.75h-117l7.31-8h102.84l6.85 8z"/><path fill="#adbdca" d="M255.84 129h-95l3.34-4h88.42l3.24 4z"/><path class="cls-1" d="M231.09 114h-52l-6 6h64l-6-6z"/><path class="cls-1" d="M210.34 118.75h-7l1.4-14h4.2l1.4 14z"/><rect x="131.09" y="21.5" width="151" height="82" rx="4" ry="4" fill="#fff"/><path d="M282.09 27v12h-151V27a4 4 0 014-4h143a4 4 0 014 4z" fill="#e5e5e5"/><rect x="131.09" y="23" width="151" height="82" rx="4" ry="4" transform="rotate(180 206.59 64)" stroke="#556a8a" stroke-miterlimit="10" stroke-width="2" fill="none"/><path class="cls-1" d="M186.09 93h40v2h-40zm38.6-26.12l-17.61 17.79V40.5h-1.98v44.17l-17.61-17.79-1.4 1.41 20 20.21 20-20.21-1.4-1.41z"/><path d="M150.38 70.83a2.13 2.13 0 002.31.85l4.25-1.36a2.28 2.28 0 001.12-2.72l-1.28-5.3a3.16 3.16 0 011.22-3.75c.51-.82 1.43-1.39 1.94-2.21a3.83 3.83 0 013.74-.54l5.7 1.82a2.58 2.58 0 002.24-.88l2.13-4.37c.26-.41 0-1.7-1.29-2.5l-4.93-3a2.79 2.79 0 01-1.46-3.16l-.39-.41a3.71 3.71 0 00.46-2.57c-.32-1.33 0-2.82 2.28-3.71l4.76-2.18a2.7 2.7 0 001.11-2.72l-1.7-4.51a1.7 1.7 0 00-2.24-.89h-.08l-5.3 1.34a3.26 3.26 0 01-3.79-1.21c-.82-.51-1.39-1.43-2.21-1.94a5.47 5.47 0 01-1-4l2-5.1a2.47 2.47 0 00-1-2.92l-4.22-1.46a2.07 2.07 0 00-2.67.63l-2.64 5.19a3.49 3.49 0 01-3.4 1.87 10.58 10.58 0 00-2.82 0l-.41-.26a3.6 3.6 0 01-3.33-2l-2.38-5.41a2.13 2.13 0 00-2.31-.85l-4.51 1.7a1.7 1.7 0 00-.89 2.24v.08l1 5.73c.48 2 0 2.82-1 3.4-.51.82-1.43 1.39-1.94 2.21a3.59 3.59 0 01-4 .94l-5.44-2.23a2.65 2.65 0 00-2.37 1.33l-2.21 4.37a3 3 0 001.29 2.5l4.93 3c1.7 1 2.21 1.94 1.45 3.18a23.31 23.31 0 00.37 3.08c-.09 1-.19 2.14-2.43 3l-5 2.58a2.13 2.13 0 00-.87 2.31l1.7 4.51a2.18 2.18 0 002.06 1.28l5.58-1.7c2-.48 2.82 0 3.4 1a30.6 30.6 0 012.36 2.6 3.06 3.06 0 011.19 3.59l-2.23 5.44a2.65 2.65 0 001.29 2.5l4 1.87a2.07 2.07 0 002.67-.63l2.7-5.19a3.4 3.4 0 013.4-1.87l3.23.29c1.33-.31 2.16.19 3.28 2l2.58 5m4.4-33.65a12 12 0 01-7 15 11.17 11.17 0 01-15.11-7 11.48 11.48 0 016.8-14.59 11.63 11.63 0 0115.19 6.29l.11.27" fill="#2bc7f4"/><path fill="none" d="M102.09 6.5h196v133h-196z"/></svg>