<svg width="178" height="18" viewBox="0 0 178 18" fill="none" xmlns="http://www.w3.org/2000/svg">
<path d="M84.75 8.09671V6.67858H82.8909V4.47356L82.8284 4.49189L81.0821 4.998L81.0474 5.00796V6.67858H78.2919V5.74779C78.2919 5.31452 78.3941 4.98284 78.5959 4.7618C78.796 4.54324 79.0823 4.43215 79.447 4.43215C79.7097 4.43215 79.9809 4.49075 80.2549 4.60659L80.3234 4.63555V3.14186L80.2911 3.13077C80.0361 3.04389 79.6891 3 79.2586 3C78.7165 3 78.2236 3.11177 77.794 3.33349C77.364 3.55521 77.0258 3.87196 76.7894 4.27468C76.553 4.67696 76.4336 5.14145 76.4336 5.65548V6.67881H75.1388V8.09694H76.4336V14.0713H78.2912V8.09694H81.0472V11.8938C81.0472 13.4574 81.8257 14.2498 83.3607 14.2498C83.6136 14.2498 83.8789 14.2215 84.1499 14.1667C84.4259 14.1106 84.6139 14.0541 84.7244 13.9943L84.7493 13.9805V12.5493L84.6738 12.5966C84.5726 12.6601 84.4477 12.7126 84.3003 12.7511C84.1525 12.7905 84.0288 12.8104 83.9333 12.8104C83.5737 12.8104 83.3074 12.7185 83.1422 12.5373C82.9752 12.3543 82.8902 12.0343 82.8902 11.5873V8.09716H84.7498V8.09671H84.75ZM70.9904 12.8099C70.316 12.8099 69.7842 12.5982 69.4093 12.1807C69.0325 11.7613 68.8412 11.1635 68.8412 10.4035C68.8412 9.61959 69.0325 9.00645 69.4098 8.5793C69.7847 8.15531 70.3113 7.94014 70.9756 7.94014C71.6196 7.94014 72.1328 8.14558 72.4999 8.55147C72.8693 8.95917 73.0567 9.568 73.0567 10.361C73.0567 11.164 72.8805 11.7803 72.5331 12.1932C72.1878 12.6022 71.6686 12.8099 70.9904 12.8099ZM71.0735 6.5003C69.7866 6.5003 68.7648 6.85754 68.0358 7.56186C67.3077 8.26662 66.9382 9.24175 66.9382 10.4606C66.9382 11.6178 67.2988 12.5486 68.0095 13.2274C68.7204 13.9056 69.6875 14.2498 70.8844 14.2498C72.1321 14.2498 73.1334 13.8875 73.862 13.1737C74.5905 12.4599 74.959 11.4938 74.959 10.3038C74.959 9.12795 74.613 8.19015 73.9296 7.51615C73.2461 6.84216 72.2847 6.5003 71.0735 6.5003ZM63.9427 6.5003C63.0673 6.5003 62.3435 6.71229 61.7902 7.13062C61.2338 7.55122 60.9516 8.10304 60.9516 8.7707C60.9516 9.118 61.0122 9.42592 61.1321 9.68746C61.2534 9.94991 61.4394 10.1809 61.6875 10.3746C61.9337 10.5671 62.3134 10.7683 62.8168 10.9732C63.2397 11.1382 63.5557 11.2778 63.7562 11.3877C63.9521 11.4956 64.0915 11.6038 64.1698 11.7094C64.2458 11.8128 64.2845 11.9538 64.2845 12.1285C64.2845 12.6251 63.8921 12.8672 63.0845 12.8672C62.7851 12.8672 62.4426 12.8077 62.0687 12.6916C61.6942 12.5742 61.3439 12.4063 61.0287 12.1911L60.9518 12.1393V13.8337L60.9797 13.8466C61.2429 13.9618 61.5743 14.0588 61.9648 14.1346C62.3547 14.2111 62.7091 14.25 63.0169 14.25C63.9666 14.25 64.7315 14.0369 65.2893 13.6158C65.8515 13.1925 66.1359 12.628 66.1359 11.9366C66.1359 11.4389 65.9828 11.0112 65.6807 10.6664C65.3808 10.3246 64.8597 10.0112 64.1335 9.73362C63.5552 9.51348 63.1843 9.33112 63.032 9.19107C62.8851 9.05533 62.8094 8.86415 62.8094 8.62161C62.8094 8.40644 62.9023 8.23449 63.0917 8.0949C63.2829 7.95462 63.5487 7.88336 63.8828 7.88336C64.1925 7.88336 64.5092 7.92974 64.8239 8.02024C65.1387 8.11096 65.4154 8.23246 65.6456 8.38133L65.7216 8.43043V6.8227L65.6927 6.81071C65.4794 6.72428 65.1988 6.6503 64.8578 6.59012C64.5183 6.53039 64.2104 6.5003 63.9427 6.5003ZM56.108 12.8099C55.4336 12.8099 54.9013 12.5982 54.5274 12.1807C54.1501 11.7613 53.9593 11.1635 53.9593 10.4035C53.9593 9.61959 54.1501 9.00645 54.5274 8.5793C54.9018 8.15531 55.4284 7.94014 56.0932 7.94014C56.7372 7.94014 57.2499 8.14558 57.6174 8.55147C57.9864 8.95917 58.1738 9.568 58.1738 10.361C58.1738 11.164 57.9981 11.7803 57.6506 12.1932C57.3049 12.6022 56.7862 12.8099 56.108 12.8099ZM56.1906 6.5003C54.9033 6.5003 53.8814 6.85754 53.1533 7.56186C52.4248 8.26662 52.0553 9.24175 52.0553 10.4606C52.0553 11.6183 52.4164 12.5486 53.1266 13.2274C53.8375 13.9059 54.8051 14.2498 56.002 14.2498C57.2492 14.2498 58.251 13.8875 58.9796 13.1737C59.7072 12.4599 60.0766 11.4938 60.0766 10.3038C60.0766 9.12795 59.7306 8.19015 59.0467 7.51615C58.3637 6.84216 57.4028 6.5003 56.1906 6.5003ZM49.2351 7.9587V6.67835H47.3992V14.0708H49.2351V10.2893C49.2351 9.64606 49.3892 9.11777 49.6927 8.71912C49.9926 8.32477 50.3923 8.12499 50.8802 8.12499C51.0452 8.12499 51.231 8.15078 51.4321 8.20191C51.6312 8.25282 51.7755 8.3078 51.8602 8.36572L51.9371 8.41866V6.66546L51.9073 6.65347C51.7361 6.58469 51.4944 6.54984 51.1885 6.54984C50.7271 6.54984 50.3145 6.69012 49.9608 6.9666C49.6502 7.20959 49.4264 7.54285 49.2547 7.95824H49.2351V7.9587ZM44.1127 6.5003C43.2709 6.5003 42.5194 6.67134 41.8808 7.00868C41.2404 7.34647 40.7458 7.82906 40.4089 8.44287C40.0736 9.05532 39.9033 9.77027 39.9033 10.5673C39.9033 11.266 40.0681 11.9067 40.3946 12.4719C40.7212 13.0375 41.1833 13.4803 41.7679 13.7871C42.3522 14.0937 43.0271 14.2493 43.7743 14.2493C44.6468 14.2493 45.3912 14.0844 45.9882 13.7579L46.0125 13.745V12.152L45.9356 12.2047C45.6651 12.3916 45.363 12.5405 45.0378 12.6479C44.7132 12.7552 44.4169 12.8092 44.1576 12.8092C43.4373 12.8092 42.8594 12.5961 42.4403 12.1751C42.0193 11.7531 41.8061 11.1617 41.8061 10.4169C41.8061 9.66733 42.0287 9.0603 42.4669 8.61233C42.9039 8.16572 43.4832 7.93924 44.1884 7.93924C44.7913 7.93924 45.3795 8.13268 45.9354 8.51482L46.0123 8.56776V6.88922L45.9875 6.87587C45.778 6.76478 45.4932 6.67315 45.1381 6.60369C44.7861 6.53536 44.4405 6.5003 44.1127 6.5003ZM38.6389 6.67858H36.8033V14.0713H38.6389V6.67858ZM37.7398 3.5292C37.4378 3.5292 37.1746 3.62671 36.9582 3.8197C36.7407 4.01337 36.6304 4.25726 36.6304 4.54483C36.6304 4.82786 36.7395 5.06724 36.9542 5.25593C37.1681 5.44394 37.4325 5.53897 37.7398 5.53897C38.0474 5.53897 38.3122 5.44394 38.5291 5.25616C38.7471 5.06746 38.8574 4.82809 38.8574 4.54483C38.8574 4.26722 38.75 4.02604 38.5381 3.82762C38.3263 3.62965 38.0577 3.5292 37.7398 3.5292ZM33.1604 6.13309V14.0713H35.0335V3.75545H32.4414L29.1462 11.4176L25.9479 3.75545H23.25V14.0713H25.0102V6.13219H25.0706L28.4475 14.0708H29.7759L33.1 6.13287L33.1604 6.13309Z" fill="white"/>
<path d="M8.25098 8.25H0.000976562V0H8.25075L8.25098 8.25Z" fill="#F8F9FA"/>
<path d="M18 8.25H9.75V0H18V8.25Z" fill="#F8F9FA"/>
<path d="M8.25 18H0V9.75H8.24977V18H8.25Z" fill="#F8F9FA"/>
<path d="M18 18H9.75V9.75H18V18Z" fill="#F8F9FA"/>
<path d="M109.531 15H108.219V3.79688H109.531V15Z" fill="white"/>
<path d="M117.766 14.6328C117.151 15.0026 116.422 15.1875 115.578 15.1875C114.438 15.1875 113.516 14.8177 112.812 14.0781C112.115 13.3333 111.766 12.3698 111.766 11.1875C111.766 9.86979 112.143 8.8125 112.898 8.01562C113.654 7.21354 114.661 6.8125 115.922 6.8125C116.625 6.8125 117.245 6.94271 117.781 7.20312V8.51562C117.188 8.09896 116.552 7.89062 115.875 7.89062C115.057 7.89062 114.385 8.1849 113.859 8.77344C113.339 9.35677 113.078 10.125 113.078 11.0781C113.078 12.0156 113.323 12.7552 113.812 13.2969C114.307 13.8385 114.969 14.1094 115.797 14.1094C116.495 14.1094 117.151 13.8776 117.766 13.4141V14.6328Z" fill="white"/>
<path d="M123.047 15.1875C121.865 15.1875 120.919 14.8151 120.211 14.0703C119.508 13.3203 119.156 12.3281 119.156 11.0938C119.156 9.75 119.523 8.70052 120.258 7.94531C120.992 7.1901 121.984 6.8125 123.234 6.8125C124.427 6.8125 125.357 7.17969 126.023 7.91406C126.695 8.64844 127.031 9.66667 127.031 10.9688C127.031 12.2448 126.669 13.2682 125.945 14.0391C125.227 14.8047 124.26 15.1875 123.047 15.1875ZM123.141 7.89062C122.318 7.89062 121.667 8.17188 121.188 8.73438C120.708 9.29167 120.469 10.0625 120.469 11.0469C120.469 11.9948 120.711 12.7422 121.195 13.2891C121.68 13.8359 122.328 14.1094 123.141 14.1094C123.969 14.1094 124.604 13.8411 125.047 13.3047C125.495 12.7682 125.719 12.0052 125.719 11.0156C125.719 10.0156 125.495 9.24479 125.047 8.70312C124.604 8.16146 123.969 7.89062 123.141 7.89062Z" fill="white"/>
<path d="M135.719 15H134.438V10.4375C134.438 8.73958 133.818 7.89062 132.578 7.89062C131.938 7.89062 131.406 8.13281 130.984 8.61719C130.568 9.09635 130.359 9.70312 130.359 10.4375V15H129.078V7H130.359V8.32812H130.391C130.995 7.31771 131.87 6.8125 133.016 6.8125C133.891 6.8125 134.56 7.09635 135.023 7.66406C135.487 8.22656 135.719 9.04167 135.719 10.1094V15Z" fill="white"/>
<path d="M145.938 14.5312C145.109 14.9688 144.078 15.1875 142.844 15.1875C141.25 15.1875 139.974 14.6745 139.016 13.6484C138.057 12.6224 137.578 11.276 137.578 9.60938C137.578 7.81771 138.117 6.36979 139.195 5.26562C140.273 4.16146 141.641 3.60938 143.297 3.60938C144.359 3.60938 145.24 3.76302 145.938 4.07031V5.46875C145.135 5.02083 144.25 4.79688 143.281 4.79688C141.995 4.79688 140.951 5.22656 140.148 6.08594C139.352 6.94531 138.953 8.09375 138.953 9.53125C138.953 10.8958 139.326 11.9844 140.07 12.7969C140.82 13.6042 141.802 14.0078 143.016 14.0078C144.141 14.0078 145.115 13.7578 145.938 13.2578V14.5312Z" fill="white"/>
<path d="M149.328 15H148.047V3.15625H149.328V15Z" fill="white"/>
<path d="M155.266 15.1875C154.083 15.1875 153.138 14.8151 152.43 14.0703C151.727 13.3203 151.375 12.3281 151.375 11.0938C151.375 9.75 151.742 8.70052 152.477 7.94531C153.211 7.1901 154.203 6.8125 155.453 6.8125C156.646 6.8125 157.576 7.17969 158.242 7.91406C158.914 8.64844 159.25 9.66667 159.25 10.9688C159.25 12.2448 158.888 13.2682 158.164 14.0391C157.445 14.8047 156.479 15.1875 155.266 15.1875ZM155.359 7.89062C154.536 7.89062 153.885 8.17188 153.406 8.73438C152.927 9.29167 152.688 10.0625 152.688 11.0469C152.688 11.9948 152.93 12.7422 153.414 13.2891C153.898 13.8359 154.547 14.1094 155.359 14.1094C156.188 14.1094 156.823 13.8411 157.266 13.3047C157.714 12.7682 157.938 12.0052 157.938 11.0156C157.938 10.0156 157.714 9.24479 157.266 8.70312C156.823 8.16146 156.188 7.89062 155.359 7.89062Z" fill="white"/>
<path d="M167.766 15H166.484V13.7344H166.453C165.922 14.7031 165.099 15.1875 163.984 15.1875C162.078 15.1875 161.125 14.0521 161.125 11.7812V7H162.398V11.5781C162.398 13.2656 163.044 14.1094 164.336 14.1094C164.961 14.1094 165.474 13.8802 165.875 13.4219C166.281 12.9583 166.484 12.3542 166.484 11.6094V7H167.766V15Z" fill="white"/>
<path d="M177.188 15H175.906V13.6406H175.875C175.281 14.6719 174.365 15.1875 173.125 15.1875C172.12 15.1875 171.315 14.8307 170.711 14.1172C170.112 13.3984 169.812 12.4219 169.812 11.1875C169.812 9.86458 170.146 8.80469 170.812 8.00781C171.479 7.21094 172.367 6.8125 173.477 6.8125C174.576 6.8125 175.375 7.24479 175.875 8.10938H175.906V3.15625H177.188V15ZM175.906 11.3828V10.2031C175.906 9.55729 175.693 9.01042 175.266 8.5625C174.839 8.11458 174.297 7.89062 173.641 7.89062C172.859 7.89062 172.245 8.17708 171.797 8.75C171.349 9.32292 171.125 10.1146 171.125 11.125C171.125 12.0469 171.339 12.776 171.766 13.3125C172.198 13.8438 172.776 14.1094 173.5 14.1094C174.214 14.1094 174.792 13.8516 175.234 13.3359C175.682 12.8203 175.906 12.1693 175.906 11.3828Z" fill="white"/>
<line opacity="0.5" x1="96.25" y1="1" x2="96.25" y2="18" stroke="white"/>
</svg>
