<svg xmlns="http://www.w3.org/2000/svg" viewBox="0 0 16 16"><defs><style>.cls-1{fill:#5759a7;}</style></defs><title>get-the-code</title><g id="content"><path class="cls-1" d="M14,14.5a1.38,1.38,0,0,1-.12.57,1.6,1.6,0,0,1-.33.48,1.56,1.56,0,0,1-.48.33,1.38,1.38,0,0,1-.57.12h-9a1.38,1.38,0,0,1-.57-.12,1.56,1.56,0,0,1-.48-.33,1.6,1.6,0,0,1-.33-.48A1.38,1.38,0,0,1,2,14.5v-9a1.36,1.36,0,0,1,.12-.57,2.06,2.06,0,0,1,.32-.5l3.48-4A1.33,1.33,0,0,1,6.41.12,1.57,1.57,0,0,1,7,0h5.5a1.4,1.4,0,0,1,.57.12,1.59,1.59,0,0,1,.8.8A1.38,1.38,0,0,1,14,1.5Zm-1,0V1.5a.48.48,0,0,0-.15-.35A.48.48,0,0,0,12.5,1H7V6H3v8.5a.51.51,0,0,0,.5.5h9a.51.51,0,0,0,.5-.5ZM6,5V1.9L3.27,5Zm.14,6.5a.39.39,0,0,1-.37.38.44.44,0,0,1-.22-.12,3.53,3.53,0,0,1-.33-.3l-.37-.41c-.13-.15-.24-.29-.35-.43s-.19-.27-.26-.37a.55.55,0,0,1-.1-.24.58.58,0,0,1,.1-.24c.07-.11.15-.24.26-.38s.22-.29.35-.43l.37-.41a3.68,3.68,0,0,1,.33-.3.44.44,0,0,1,.22-.12.39.39,0,0,1,.38.38A.66.66,0,0,1,6,8.84a5,5,0,0,1-.34.43l-.38.43L5,10l.28.31.38.42a5,5,0,0,1,.34.43A.66.66,0,0,1,6.13,11.5ZM9.38,7a2.44,2.44,0,0,1-.08.3L9.08,8l-.3,1L8.42,10l-.36,1.09-.32,1-.25.7a3.11,3.11,0,0,1-.12.32,1,1,0,0,1-.14.18.29.29,0,0,1-.21.07A.37.37,0,0,1,6.63,13a2.5,2.5,0,0,1,.08-.3l.21-.7.3-1L7.58,10l.36-1.09.32-1,.25-.7a3.35,3.35,0,0,1,.13-.32,1.12,1.12,0,0,1,.14-.18A.29.29,0,0,1,9,6.63a.37.37,0,0,1,.26.11A.36.36,0,0,1,9.38,7Zm2.5,3a.55.55,0,0,1-.1.24q-.1.16-.26.38c-.1.14-.22.29-.35.43l-.37.41a3.53,3.53,0,0,1-.33.3.44.44,0,0,1-.22.12.39.39,0,0,1-.38-.37.66.66,0,0,1,.14-.34,5,5,0,0,1,.34-.43l.38-.42L11,10l-.28-.3-.38-.43A5,5,0,0,1,10,8.84a.66.66,0,0,1-.14-.34.39.39,0,0,1,.38-.37.44.44,0,0,1,.22.12,3.68,3.68,0,0,1,.33.3l.37.41c.13.15.24.29.35.43s.19.27.26.38A.58.58,0,0,1,11.88,10Z"/></g></svg>