<svg id="Layer_1" xmlns="http://www.w3.org/2000/svg" xmlns:xlink="http://www.w3.org/1999/xlink" viewBox="0 0 290 178"><style>.st2{fill:#fff}.st8{fill:#1f3d68}.st9{fill:#60beac}</style><g id="Layer_2"><g id="content"><path d="M269.5 112.4c-.6-.8-.4-1.9.4-2.4s1.9-.3 2.4.5.3 1.9-.5 2.4c-.2.1-.4.2-.7.3-.5.1-1.2-.2-1.6-.8zm-4.8-7.1c-.5-.8-.3-1.9.5-2.4s1.9-.3 2.4.5.3 1.9-.5 2.4c-.2.1-.4.2-.7.3-.6 0-1.3-.3-1.7-.8zm-4.8-7.2c-.5-.8-.3-1.9.5-2.4s1.9-.3 2.4.5.3 1.9-.5 2.4c-.2.1-.4.2-.7.3-.6 0-1.3-.3-1.7-.8zm-4.8-7.2c-.5-.8-.3-1.9.5-2.4s1.9-.3 2.4.5.3 1.9-.5 2.4c-.2.1-.4.2-.7.3-.6 0-1.3-.3-1.7-.8zm-4.8-7.2c-.5-.8-.3-1.9.5-2.4s1.9-.3 2.4.5.3 1.9-.5 2.4c-.2.1-.4.2-.7.3-.6 0-1.3-.3-1.7-.8zm-4.8-7.2c-.6-.8-.4-1.9.4-2.4s1.9-.3 2.4.5.3 1.9-.5 2.4c-.2.1-.4.2-.7.3-.5 0-1.2-.3-1.6-.8zm-4.8-7.2c-.5-.8-.3-1.9.5-2.4s1.9-.3 2.4.5.3 1.9-.5 2.4c-.2.1-.4.2-.7.3-.6 0-1.3-.3-1.7-.8zm-4.8-7.2c-.5-.8-.3-1.9.5-2.4s1.9-.3 2.4.5.3 1.9-.5 2.4c-.2.1-.4.2-.7.3-.6 0-1.3-.3-1.7-.8zm-4.8-7.2c-.5-.8-.3-1.9.5-2.4s1.9-.3 2.4.5.3 1.9-.5 2.4c-.2.1-.4.2-.7.3-.6 0-1.3-.3-1.7-.8zm-4.8-7.2c-.5-.8-.3-1.9.5-2.4s1.9-.3 2.4.5.3 1.9-.5 2.4c-.2.1-.4.2-.7.3-.6 0-1.3-.3-1.7-.8zm-82.2 94c-.5-.8-.3-1.9.5-2.4s1.9-.3 2.4.5.3 1.9-.5 2.4c-.2.1-.5.2-.7.3-.7 0-1.3-.3-1.7-.8zm-4.6-7.3c-.5-.8-.3-1.9.5-2.4s1.9-.3 2.4.5.3 1.9-.5 2.4c-.2.1-.5.2-.7.3-.7 0-1.4-.3-1.7-.8zm-4.7-7.4c-.5-.8-.3-1.9.5-2.4s1.9-.3 2.4.5.3 1.9-.5 2.4c-.2.1-.5.2-.7.3-.6.1-1.3-.2-1.7-.8zm-4.6-7.3c-.5-.8-.3-1.9.5-2.4s1.9-.3 2.4.5.3 1.9-.5 2.4c-.2.1-.5.2-.7.3-.7.1-1.3-.2-1.7-.8zm-4.6-7.3c-.5-.8-.3-1.9.5-2.4s1.9-.3 2.4.5c.6.8.4 1.9-.4 2.4 0 0-.1 0-.1.1-.2.1-.5.2-.7.3-.7 0-1.4-.3-1.7-.9zm-4.6-7.3c-.5-.8-.3-1.9.5-2.4s1.9-.3 2.4.5.3 1.9-.5 2.4c-.2.1-.5.2-.7.3-.7.1-1.3-.2-1.7-.8zm-4.6-7.3c-.5-.8-.3-1.9.5-2.4s1.9-.3 2.4.5.3 1.9-.5 2.4c-.2.1-.5.2-.7.3-.7.1-1.4-.2-1.7-.8zm-4.6-7.3c-.5-.8-.3-1.9.5-2.4s1.9-.3 2.4.5.3 1.9-.5 2.4c-.2.1-.5.2-.7.3-.7.1-1.4-.2-1.7-.8zm-4.7-7.3c-.5-.8-.3-1.9.5-2.4s1.9-.3 2.4.5.3 1.9-.5 2.4c-.2.1-.5.2-.7.3-.7.1-1.4-.2-1.7-.8zm-4.6-7.3c-.5-.8-.3-1.9.5-2.4s1.9-.3 2.4.5.3 1.9-.5 2.4c-.2.1-.5.2-.7.3-.7.1-1.4-.2-1.7-.8zm-4.6-7.3c-.5-.8-.3-1.9.5-2.4s1.9-.3 2.4.5.3 1.9-.5 2.4c-.2.1-.5.2-.7.3-.7 0-1.4-.3-1.7-.8zm-4.6-7.4c-.5-.8-.3-1.9.5-2.4s1.9-.3 2.4.5.3 1.9-.5 2.4c-.2.1-.5.2-.7.3-.7.1-1.4-.2-1.7-.8zm-4.7-7.3c-.5-.8-.3-1.9.5-2.4.9-.5 1.9-.3 2.5.5.5.8.3 1.9-.6 2.4-.2.1-.5.2-.7.3-.7.1-1.4-.2-1.7-.8zM84 46.6c-.5-.8-.3-1.9.5-2.4s1.9-.3 2.4.5.3 1.9-.5 2.4c-.2.1-.5.2-.7.3-.7.1-1.4-.2-1.7-.8zM125.5 151c-.9-.3-1.4-1.3-1.1-2.2.3-.9 1.3-1.4 2.2-1.1.9.3 1.4 1.3 1.1 2.2-.2.6-.7 1.1-1.4 1.2-.2 0-.5 0-.8-.1zm-8.2-2.6c-.9-.3-1.4-1.3-1.1-2.2.3-.9 1.3-1.4 2.2-1.1.9.3 1.4 1.3 1.1 2.2-.2.6-.7 1.1-1.4 1.2-.3 0-.6 0-.8-.1zm-8.3-2.6c-.9-.3-1.4-1.3-1.1-2.2.3-.9 1.3-1.4 2.2-1.1.9.3 1.4 1.3 1.1 2.2-.2.6-.7 1.1-1.4 1.2-.3 0-.5-.1-.8-.1zm-8.2-2.7c-.9-.3-1.4-1.3-1.1-2.2.3-.9 1.3-1.4 2.2-1.1.9.3 1.5 1.2 1.2 2.2-.2.6-.7 1.1-1.4 1.2-.4 0-.6 0-.9-.1zm-8.3-2.6c-.9-.3-1.4-1.3-1.1-2.2.3-.9 1.3-1.4 2.2-1.1.9.3 1.4 1.3 1.1 2.2-.2.6-.7 1.1-1.4 1.2-.2 0-.5 0-.8-.1zm-8.2-2.6c-.9-.3-1.4-1.3-1.1-2.2.3-.9 1.3-1.4 2.2-1.1.9.3 1.4 1.3 1.1 2.2-.2.6-.7 1.1-1.4 1.2-.3 0-.5-.1-.8-.1zm-8.3-2.7c-.9-.3-1.4-1.3-1-2.2.3-.9 1.3-1.4 2.2-1.1.9.3 1.4 1.3 1.1 2.2-.2.6-.7 1.1-1.4 1.2-.2 0-.5 0-.9-.1zm-8.2-2.6c-.9-.3-1.4-1.3-1.1-2.2.3-.9 1.3-1.4 2.2-1.1.9.3 1.4 1.3 1.1 2.2-.2.6-.7 1.1-1.4 1.2-.2 0-.5 0-.8-.1zm-8.2-2.7c-.9-.3-1.4-1.3-1.1-2.2.3-.9 1.3-1.4 2.2-1.1.9.3 1.4 1.3 1.1 2.2-.2.6-.7 1.1-1.3 1.2-.4 0-.6 0-.9-.1zm-8.3-2.6c-.9-.3-1.4-1.3-1.1-2.2.3-.9 1.3-1.4 2.2-1.1.9.3 1.4 1.3 1.1 2.2-.2.6-.7 1.1-1.4 1.2-.2 0-.5 0-.8-.1zm117.8 18.8c-.4-.9 0-1.9.9-2.3.9-.4 1.9 0 2.3.9.4.9 0 1.9-.9 2.3-.3.1-.6.2-.9.1-.7-.1-1.2-.5-1.4-1zm7.9-3.6c-.4-.9 0-1.9.9-2.3.9-.4 1.9 0 2.3.9.4.9 0 1.9-.9 2.3-.3.1-.6.2-.9.1-.6 0-1.2-.4-1.4-1zm7.9-3.5c-.4-.9 0-1.9.9-2.3.9-.4 1.9 0 2.3.9.4.9 0 1.9-.9 2.3-.3.1-.6.2-.9.1-.7-.1-1.2-.4-1.4-1zm7.9-3.5c-.4-.9 0-1.9.9-2.3.9-.4 1.9 0 2.3.9.4.9 0 1.9-.9 2.3-.3.1-.6.2-.9.1-.7-.1-1.2-.5-1.4-1zm7.9-3.6c-.4-.9 0-1.9.9-2.3.9-.4 1.9 0 2.3.9.4.9 0 1.9-.9 2.3-.3.1-.6.2-.9.1-.7 0-1.2-.4-1.4-1zm7.9-3.5c-.4-.9 0-1.9.9-2.3.9-.4 1.9 0 2.3.9.4.9 0 1.9-.9 2.3-.3.1-.6.2-.9.1-.7 0-1.2-.4-1.4-1zm7.9-3.5c-.4-.9 0-1.9.9-2.3.9-.4 1.9 0 2.3.9.4.9 0 1.9-.9 2.3-.3.1-.6.2-.9.1-.7-.1-1.2-.5-1.4-1zm7.9-3.5c-.4-.9 0-1.9.9-2.3.9-.4 1.9 0 2.3.9.4.9 0 1.9-.9 2.3-.3.1-.6.2-.9.1-.7-.1-1.2-.5-1.4-1zm7.8-3.6c-.4-.9 0-1.9.9-2.3.9-.4 1.9 0 2.3.9.4.9 0 1.9-.9 2.3-.3.1-.6.2-.9.1-.6 0-1.1-.4-1.4-1zm8-3.5c-.4-.9 0-1.9.8-2.3.9-.4 1.9 0 2.3.9.4.9 0 1.9-.9 2.3-.3.1-.6.2-.9.1-.6-.1-1.1-.5-1.3-1zm7.9-3.5c-.4-.9 0-1.9.9-2.3.9-.4 1.9 0 2.3.9.4.9 0 1.9-.9 2.3-.3.1-.6.2-.9.1-.7-.1-1.2-.5-1.4-1zm7.9-3.5c-.4-.9 0-1.9.9-2.3.9-.4 1.9 0 2.3.9.4.9 0 1.9-.9 2.3-.3.1-.6.2-.9.1-.7-.1-1.2-.5-1.4-1zm-15-12.6c-.9-.3-1.4-1.3-1.1-2.2.3-.9 1.3-1.4 2.2-1.1.9.3 1.4 1.3 1.1 2.2-.2.7-.8 1.1-1.5 1.2-.2 0-.5 0-.7-.1zm-8.2-2.6c-.9-.3-1.4-1.3-1.1-2.2.3-.9 1.3-1.4 2.2-1.1.9.3 1.4 1.3 1.1 2.2-.2.7-.8 1.1-1.5 1.2-.2 0-.5-.1-.7-.1zm-8.3-2.7c-.9-.3-1.4-1.3-1.1-2.2.3-.9 1.3-1.4 2.2-1.1.9.3 1.4 1.3 1.1 2.2-.2.7-.8 1.1-1.5 1.2-.2 0-.4 0-.7-.1zm-8.2-2.7c-.9-.3-1.4-1.3-1.1-2.2.3-.9 1.3-1.4 2.2-1.1.9.3 1.4 1.3 1.1 2.2-.2.7-.8 1.1-1.5 1.2-.2 0-.5 0-.7-.1zm-8.2-2.7c-.9-.3-1.4-1.3-1.1-2.2.3-.9 1.3-1.4 2.2-1.1.9.3 1.4 1.3 1.1 2.2-.2.7-.8 1.1-1.5 1.2-.2 0-.5 0-.7-.1zm-8.2-2.7c-.9-.3-1.4-1.3-1.1-2.2.3-.9 1.3-1.4 2.2-1.1.9.3 1.4 1.3 1.1 2.2-.2.7-.8 1.1-1.5 1.2-.3 0-.5 0-.7-.1zm-8.3-2.6c-.9-.3-1.4-1.3-1.1-2.2.3-.9 1.3-1.4 2.2-1.1.9.3 1.4 1.3 1.1 2.2-.2.7-.8 1.1-1.5 1.2-.2 0-.4 0-.7-.1zm-8.2-2.7c-.9-.3-1.4-1.3-1.1-2.2.3-.9 1.3-1.4 2.2-1.1.9.3 1.4 1.3 1.1 2.2-.2.7-.8 1.1-1.5 1.2-.2 0-.5 0-.7-.1zm-8.2-2.7c-.9-.3-1.4-1.3-1.1-2.2.3-.9 1.3-1.4 2.2-1.1.9.3 1.4 1.3 1.1 2.2-.2.7-.8 1.1-1.5 1.2-.3 0-.5 0-.7-.1zm-8.3-2.6c-.9-.3-1.4-1.3-1.1-2.2.3-.9 1.3-1.4 2.2-1.1.9.3 1.4 1.3 1.1 2.2-.2.7-.8 1.1-1.5 1.2-.2 0-.4-.1-.7-.1zm-8.2-2.7c-.9-.3-1.4-1.3-1.1-2.2.3-.9 1.3-1.4 2.2-1.1.9.3 1.4 1.3 1.1 2.2-.2.7-.8 1.1-1.5 1.2-.2 0-.5 0-.7-.1zm-8.2-2.7c-.9-.3-1.4-1.3-1.1-2.2.3-.9 1.3-1.4 2.2-1.1.9.3 1.4 1.3 1.1 2.2-.2.7-.8 1.1-1.5 1.2-.2 0-.5 0-.7-.1zm-8.3-2.6c-.9-.3-1.4-1.3-1.1-2.2.3-.9 1.3-1.4 2.2-1.1.9.3 1.4 1.3 1.1 2.2-.2.7-.8 1.1-1.5 1.2-.2 0-.4-.1-.7-.1zM134 60c-.9-.3-1.4-1.3-1.1-2.2.3-.9 1.3-1.4 2.2-1.1.9.3 1.4 1.3 1.1 2.2-.2.7-.8 1.1-1.5 1.2-.2 0-.5 0-.7-.1zm-8.2-2.7c-.9-.3-1.4-1.3-1.1-2.2.3-.9 1.3-1.4 2.2-1.1.9.3 1.4 1.3 1.1 2.2-.2.7-.8 1.1-1.5 1.2-.2 0-.5 0-.7-.1zm-8.3-2.6c-.9-.3-1.4-1.3-1.1-2.2.3-.9 1.3-1.4 2.2-1.1.9.3 1.4 1.3 1.1 2.2-.2.7-.8 1.1-1.5 1.2-.2-.1-.4-.1-.7-.1zm-8.2-2.7c-.9-.3-1.4-1.3-1.1-2.2.3-.9 1.3-1.4 2.2-1.1.9.3 1.4 1.3 1.1 2.2-.2.7-.8 1.1-1.5 1.2-.2 0-.4 0-.7-.1zm-5.5-15c-.1-1 .6-1.8 1.5-1.9 1-.1 1.8.6 1.9 1.5.1 1-.6 1.8-1.5 1.9h-.3c-.8 0-1.5-.7-1.6-1.5zm8.7-1c-.1-.9.6-1.8 1.5-1.9 1-.1 1.8.6 1.9 1.5.1 1-.6 1.8-1.5 1.9h-.3c-.9 0-1.6-.7-1.6-1.5zm8.6-1c-.1-1 .6-1.8 1.5-1.9 1-.1 1.8.6 1.9 1.5.1 1-.5 1.8-1.5 2h-.4c-.8-.1-1.4-.7-1.5-1.6zm8.6-1c-.1-1 .6-1.8 1.5-1.9 1-.1 1.8.6 1.9 1.5.1 1-.6 1.8-1.5 1.9h-.4c-.7 0-1.4-.6-1.5-1.5zm8.6-1c-.1-.9.6-1.8 1.5-1.9 1-.1 1.8.6 1.9 1.5.1 1-.6 1.8-1.5 1.9h-.3c-.8 0-1.4-.6-1.6-1.5zm8.7-1c-.1-1 .6-1.8 1.5-1.9 1-.1 1.8.6 1.9 1.5.1 1-.6 1.8-1.5 1.9h-.3c-.8-.1-1.5-.6-1.6-1.5zm8.6-1c-.1-1 .6-1.8 1.5-1.9 1-.1 1.8.6 1.9 1.6v.1c.1.9-.6 1.8-1.5 1.9h-.3c-.8-.1-1.5-.7-1.6-1.5V31zm8.6-1c-.1-1 .6-1.8 1.6-1.9 1-.1 1.8.6 1.9 1.5.1 1-.6 1.8-1.5 1.9h-.3c-.8-.1-1.4-.6-1.7-1.5zm8.6-.9c-.1-1 .6-1.8 1.5-1.9 1-.1 1.8.6 1.9 1.5.1 1-.6 1.8-1.5 1.9h-.3c-.8 0-1.4-.6-1.6-1.5zm8.6-1c0-.9.7-1.6 1.6-1.7 1-.1 1.8.6 1.9 1.6.1 1-.6 1.8-1.6 1.9h-.3c-.8-.1-1.5-.7-1.6-1.6v-.2zm8.7-.8c-.1-1 .6-1.8 1.6-1.9 1-.1 1.8.6 1.9 1.6.2.9-.4 1.9-1.4 2.1h-.5c-.8-.1-1.5-.7-1.6-1.5v-.3zm10.1.8c-.9-.2-1.6-1.1-1.4-2 .1-.9 1-1.6 2-1.5.9.2 1.6 1 1.4 2-.1.9-1 1.5-1.9 1.5h-.1z" fill="#f6894b"/><circle cx="264.8" cy="99.9" r="22.8" fill="#84d3ea"/><path class="st2" d="M279.2 88.7c-1.2.7-2.4 1.2-3.7 1.4-2.2-2.4-6-2.5-8.3-.2-1.5 1.4-2.2 3.6-1.7 5.6-4.7-.2-9.1-2.5-12.1-6.1-1.6 2.7-.8 6.1 1.8 7.8-.9 0-1.8-.3-2.7-.7v.1c0 2.8 2 5.2 4.7 5.8-.9.2-1.8.3-2.6.1.8 2.4 3 4 5.5 4.1-2.1 1.6-4.6 2.5-7.3 2.5-.5 0-.9 0-1.4-.1 2.7 1.7 5.8 2.6 9 2.6 10.8 0 16.7-8.9 16.7-16.7v-.8c1.1-.8 2.1-1.8 2.9-3-1.1.5-2.2.8-3.4.9 1.3-.8 2.2-1.9 2.6-3.3z"/><circle cx="211.9" cy="23.3" r="22.8" fill="#ee6950"/><circle class="st2" cx="205.5" cy="29.8" r="3.7"/><defs><path id="SVGID_1_" d="M202.2 7.1h23.7v26.2h-23.7z"/></defs><clipPath id="SVGID_2_"><use xlink:href="#SVGID_1_" overflow="visible"/></clipPath><g clip-path="url(#SVGID_2_)" fill="none" stroke="#fff" stroke-miterlimit="10"><circle cx="205.8" cy="29.6" r="8.8" stroke-width="4"/><circle cx="205.5" cy="29.9" r="16.8" stroke-width="5"/></g><circle cx="83.1" cy="40.1" r="22.8" fill="#df6c7e"/><ellipse class="st8" cx="68.8" cy="43.2" rx="2.1" ry="4.4"/><ellipse class="st8" cx="97.4" cy="43.2" rx="2.1" ry="4.4"/><ellipse class="st8" cx="82.9" cy="33.5" rx="7.9" ry="3.3"/><path class="st8" d="M71.4 32.8h23.1c1.6 0 2.9 1.3 2.9 2.9v14.9c0 1.6-1.3 2.9-2.9 2.9H71.4c-1.6 0-2.9-1.3-2.9-2.9V35.7c0-1.6 1.3-2.9 2.9-2.9z"/><path class="st9" d="M93.7 52.6H72.1c-1.6 0-2.9-1.3-2.9-2.9V36.6c0-1.6 1.3-2.9 2.9-2.9h21.6c1.6 0 2.9 1.3 2.9 2.9v13.1c0 1.6-1.3 2.9-2.9 2.9z"/><path d="M94.6 52.6h-7.3c9.3-5.4 9.3-17.6 9.3-16.8v14.8c0 1.1-.9 2-2 2z" fill="#acdad1"/><ellipse class="st8" cx="77.5" cy="41.5" rx=".6" ry="1.7"/><ellipse class="st8" cx="88.6" cy="41.5" rx=".6" ry="1.7"/><path class="st8" d="M85.9 45.6c0 1.6-1.3 2.9-2.9 2.9s-2.9-1.3-2.9-2.9h5.8z"/><path d="M82.9 30.9s.4-4.8-1.6-7.7" fill="none" stroke="#24424c" stroke-width=".58" stroke-miterlimit="10"/><circle transform="rotate(-25.816 81.18 23.203)" class="st9" cx="81.2" cy="23.2" r=".9"/><circle cx="153.7" cy="154.5" r="22.8" fill="#662a78"/><path class="st2" d="M159.8 141.4l-10.1 10.4-6.6-5-2.6 1.4.2 12.8 2.8 1.4 6.5-5.3 10.4 10.5 6.3-2.7-.3-20.8-6.6-2.7zm-16.3 16.7l-.1-7.2 3.5 3.7-3.4 3.5zm16.6 1.7l-6.5-5.1 6.4-5.4.1 10.5z"/><circle cx="24.8" cy="116.9" r="22.8" fill="#f2c811"/><path class="st2" d="M40.3 118.8v7.2c0 1.5-1.1 2.8-2.6 3-.4.1-.9 0-1.3-.1l-2.3-.7c-.4-.1-.6-.5-.5-.9s.5-.6.9-.5l1.8.6c.3.1.6.2.9.2.8.1 1.6-.6 1.6-1.4v-14.6c0-.7-.4-1.3-1.1-1.5l-11.4-3.5-9.8-3c-.8-.3-1.6.1-1.9.9 0 .1-.1.2-.1.2v10.2c0 .1 0 .3-.1.4-.2.4-.6.5-1 .4-.3-.1-.4-.4-.4-.6v-10c0-1.5 1-2.7 2.5-3 .5-.1 1.1 0 1.6.1l7.5 2.3 9.5 2.9 4.2 1.3c1.3.4 2.2 1.6 2.1 2.9-.1 2.4-.1 4.8-.1 7.2z"/><path class="st2" d="M31.6 122v7.9c0 1-.9 1.8-1.9 1.8-.9 0-1.6-.6-1.8-1.5v-16.1c0-.9.6-1.7 1.4-1.9 1-.2 2 .4 2.2 1.4v.4c.1 2.7.1 5.3.1 8zm-9 0v-6c-.1-1 .7-1.9 1.7-1.9 1-.1 1.8.6 1.9 1.6V128c0 1-.8 1.8-1.8 1.8s-1.8-.8-1.8-1.8v-6zm-1.6 0v3.9c0 1-.8 1.8-1.8 1.9-1 0-1.8-.8-1.9-1.8v-7.9c0-.4.1-.9.4-1.2.6-.8 1.7-1 2.5-.4.5.3.7.9.7 1.4.1 1.4.1 2.8.1 4.1zm-5.2 0v2.1c0 1-.9 1.8-1.9 1.8-.9 0-1.7-.7-1.8-1.6v-4.4c0-.9.7-1.7 1.6-1.8 1-.1 1.9.6 2 1.6v.2c0 .7.1 1.4.1 2.1z"/></g></g></svg>