<svg xmlns="http://www.w3.org/2000/svg" viewBox="0 0 20 20"><defs><style>.cls-1{fill:#5558af;}.cls-2{fill:#fff;}</style></defs><title>2</title><g id="content"><circle class="cls-1" cx="10" cy="10" r="10"/><path class="cls-2" d="M9.08,13h4.16v1.79H6.72V14A3.44,3.44,0,0,1,7,12.67a4.47,4.47,0,0,1,.64-1.07,5.5,5.5,0,0,1,.84-.84q.45-.37.86-.66t.76-.59a4.31,4.31,0,0,0,.55-.56,2.12,2.12,0,0,0,.33-.56,1.67,1.67,0,0,0,.11-.6,1.22,1.22,0,0,0-.36-1,1.58,1.58,0,0,0-1.09-.32,3.65,3.65,0,0,0-2.42,1V5.62a5.2,5.2,0,0,1,2.88-.83A4.26,4.26,0,0,1,11.41,5a2.83,2.83,0,0,1,1,.56,2.38,2.38,0,0,1,.63.88,3,3,0,0,1,.22,1.15A3.25,3.25,0,0,1,13,8.77a3.7,3.7,0,0,1-.55,1,5,5,0,0,1-.8.79q-.45.36-.94.69l-.63.46a6,6,0,0,0-.54.45,2.46,2.46,0,0,0-.37.43A.75.75,0,0,0,9.08,13Z"/></g></svg>