<svg xmlns="http://www.w3.org/2000/svg" viewBox="0 0 20 20"><circle cx="10" cy="10" r="10" fill="#5558af"/><path d="M9.08 13h4.16v1.79H6.72V14A3.44 3.44 0 017 12.67a4.47 4.47 0 01.64-1.07 5.5 5.5 0 01.84-.84q.45-.37.86-.66t.76-.59a4.31 4.31 0 00.55-.56 2.12 2.12 0 00.33-.56 1.67 1.67 0 00.11-.6 1.22 1.22 0 00-.36-1 1.58 1.58 0 00-1.09-.32 3.65 3.65 0 00-2.42 1V5.62a5.2 5.2 0 012.88-.83 4.26 4.26 0 011.31.21 2.83 2.83 0 011 .56 2.38 2.38 0 01.63.88 3 3 0 01.22 1.15A3.25 3.25 0 0113 8.77a3.7 3.7 0 01-.55 1 5 5 0 01-.8.79q-.45.36-.94.69l-.63.46a6 6 0 00-.54.45 2.46 2.46 0 00-.37.43.75.75 0 00-.09.41z" fill="#fff"/></svg>