<svg xmlns="http://www.w3.org/2000/svg" viewBox="0 0 20 20"><circle cx="10" cy="10" r="10" fill="#5558af"/><path d="M7.15 14.59v-1.88a3.85 3.85 0 002.32.72 2.1 2.1 0 001.3-.36 1.18 1.18 0 00.47-1 1.12 1.12 0 00-.58-1 3 3 0 00-1.58-.36h-.92V9.06H9q1.93 0 1.93-1.27t-1.47-1.2a3.4 3.4 0 00-1.93.64V5.46A5.37 5.37 0 0110 4.94a3.69 3.69 0 012.36.68 2.15 2.15 0 01.84 1.76 2.29 2.29 0 01-2 2.41 2.68 2.68 0 011.66.76 2.12 2.12 0 01.61 1.53 2.62 2.62 0 01-1 2.17 4.41 4.41 0 01-2.8.8 5.45 5.45 0 01-2.52-.46z" fill="#fff"/></svg>