<svg xmlns="http://www.w3.org/2000/svg" viewBox="0 0 20 20"><defs><style>.cls-1{fill:#5558af;}.cls-2{fill:#fff;}</style></defs><title>3</title><g id="content"><circle class="cls-1" cx="10" cy="10" r="10"/><path class="cls-2" d="M7.15,14.59V12.71a3.85,3.85,0,0,0,2.32.72,2.1,2.1,0,0,0,1.3-.36,1.18,1.18,0,0,0,.47-1,1.12,1.12,0,0,0-.58-1,3,3,0,0,0-1.58-.36H8.16V9.06H9q1.93,0,1.93-1.27T9.46,6.59a3.4,3.4,0,0,0-1.93.64V5.46A5.37,5.37,0,0,1,10,4.94a3.69,3.69,0,0,1,2.36.68,2.15,2.15,0,0,1,.84,1.76,2.29,2.29,0,0,1-2,2.41v0a2.68,2.68,0,0,1,1.66.76,2.12,2.12,0,0,1,.61,1.53,2.62,2.62,0,0,1-1,2.17,4.41,4.41,0,0,1-2.8.8A5.45,5.45,0,0,1,7.15,14.59Z"/></g></svg>