<svg xmlns="http://www.w3.org/2000/svg" viewBox="0 0 20 20"><defs><style>.cls-1{fill:#5558af;}.cls-2{fill:#fff;}</style></defs><title>5</title><g id="content"><circle class="cls-1" cx="10" cy="10" r="10"/><path class="cls-2" d="M7.25,14.39V12.54a4,4,0,0,0,2.14.62,2,2,0,0,0,1.34-.41,1.37,1.37,0,0,0,.48-1.1q0-1.46-2.06-1.46a15.19,15.19,0,0,0-1.75.12l.37-5.47H13V6.6H9.41l-.14,2q.53,0,.91,0a3.34,3.34,0,0,1,2.37.79,2.77,2.77,0,0,1,.85,2.13,3.15,3.15,0,0,1-1,2.42,3.92,3.92,0,0,1-2.76.94A5.91,5.91,0,0,1,7.25,14.39Z"/></g></svg>