<svg xmlns="http://www.w3.org/2000/svg" viewBox="0 0 20 20"><circle cx="10" cy="10" r="10" fill="#5558af"/><path d="M13.45 11.49a3.6 3.6 0 01-.25 1.35 3.3 3.3 0 01-.7 1.09 3.26 3.26 0 01-1.07.72 3.68 3.68 0 01-2.84 0 3 3 0 01-1.1-.89 4.18 4.18 0 01-.69-1.43 7.07 7.07 0 01-.24-1.92 7.9 7.9 0 01.31-2.29 5.27 5.27 0 01.89-1.76 4 4 0 011.4-1.13A4.16 4.16 0 0111 4.79a4.66 4.66 0 011.76.27v1.8a3.23 3.23 0 00-1.63-.42 2.28 2.28 0 00-1 .21 2.19 2.19 0 00-.76.6 2.91 2.91 0 00-.5.94 4.19 4.19 0 00-.19 1.23 2.38 2.38 0 012.06-1 2.68 2.68 0 011.1.22 2.39 2.39 0 01.84.62 2.84 2.84 0 01.54 1 3.84 3.84 0 01.23 1.23zm-2.11.14q0-1.58-1.29-1.58a1.27 1.27 0 00-.53.11 1.18 1.18 0 00-.41.31 1.41 1.41 0 00-.26.47 1.84 1.84 0 00-.09.6 2.31 2.31 0 00.1.68 1.8 1.8 0 00.27.55 1.34 1.34 0 00.41.37 1.05 1.05 0 00.53.14 1.16 1.16 0 00.53-.12 1.19 1.19 0 00.4-.33 1.54 1.54 0 00.26-.52 2.37 2.37 0 00.08-.68z" fill="#fff"/></svg>