<svg xmlns="http://www.w3.org/2000/svg" viewBox="0 0 20 20"><defs><style>.cls-1{fill:#5558af;}.cls-2{fill:#fff;}</style></defs><title>6</title><g id="content"><circle class="cls-1" cx="10" cy="10" r="10"/><path class="cls-2" d="M13.45,11.49a3.6,3.6,0,0,1-.25,1.35,3.3,3.3,0,0,1-.7,1.09,3.26,3.26,0,0,1-1.07.72,3.68,3.68,0,0,1-2.84,0,3,3,0,0,1-1.1-.89,4.18,4.18,0,0,1-.69-1.43,7.07,7.07,0,0,1-.24-1.92,7.9,7.9,0,0,1,.31-2.29,5.27,5.27,0,0,1,.89-1.76,4,4,0,0,1,1.4-1.13A4.16,4.16,0,0,1,11,4.79a4.66,4.66,0,0,1,1.76.27v1.8a3.23,3.23,0,0,0-1.63-.42,2.28,2.28,0,0,0-1,.21,2.19,2.19,0,0,0-.76.6,2.91,2.91,0,0,0-.5.94,4.19,4.19,0,0,0-.19,1.23h0a2.38,2.38,0,0,1,2.06-1,2.68,2.68,0,0,1,1.1.22,2.39,2.39,0,0,1,.84.62,2.84,2.84,0,0,1,.54,1A3.84,3.84,0,0,1,13.45,11.49Zm-2.11.14q0-1.58-1.29-1.58a1.27,1.27,0,0,0-.53.11,1.18,1.18,0,0,0-.41.31,1.41,1.41,0,0,0-.26.47,1.84,1.84,0,0,0-.09.6,2.31,2.31,0,0,0,.1.68,1.8,1.8,0,0,0,.27.55,1.34,1.34,0,0,0,.41.37,1.05,1.05,0,0,0,.53.14,1.16,1.16,0,0,0,.53-.12,1.19,1.19,0,0,0,.4-.33,1.54,1.54,0,0,0,.26-.52A2.37,2.37,0,0,0,11.34,11.63Z"/></g></svg>