<?xml version="1.0" encoding="UTF-8"?>
<svg width="32px" height="32px" viewBox="0 0 32 32" version="1.1" xmlns="http://www.w3.org/2000/svg" xmlns:xlink="http://www.w3.org/1999/xlink">
    <title>Bot</title>
    <g id="Bot" stroke="none" stroke-width="1" fill="none" fill-rule="evenodd">
        <path d="M23,19 C23.40625,19 23.7890625,18.9192708 24.1484375,18.7578125 C24.5078125,18.5963542 24.8255208,18.3776042 25.1015625,18.1015625 C25.3776042,17.8255208 25.5963542,17.5078125 25.7578125,17.1484375 C25.9192708,16.7890625 26,16.40625 26,16 L26,16 L26,8 C26,7.59375 25.9192708,7.2109375 25.7578125,6.8515625 C25.5963542,6.4921875 25.3776042,6.17447917 25.1015625,5.8984375 C24.8255208,5.62239583 24.5078125,5.40364583 24.1484375,5.2421875 C23.7890625,5.08072917 23.40625,5 23,5 L23,5 L17,5 L17,2 C17,1.72916667 16.9010417,1.49479167 16.703125,1.296875 C16.5052083,1.09895833 16.2708333,1 16,1 C15.7291667,1 15.4947917,1.09895833 15.296875,1.296875 C15.0989583,1.49479167 15,1.72916667 15,2 L15,2 L15,5 L9,5 C8.59375,5 8.2109375,5.08072917 7.8515625,5.2421875 C7.4921875,5.40364583 7.17447917,5.62239583 6.8984375,5.8984375 C6.62239583,6.17447917 6.40364583,6.4921875 6.2421875,6.8515625 C6.08072917,7.2109375 6,7.59375 6,8 L6,8 L6,16 C6,16.3958333 6.08072917,16.7760417 6.2421875,17.140625 C6.40364583,17.5052083 6.62239583,17.8255208 6.8984375,18.1015625 C7.17447917,18.3776042 7.49479167,18.5963542 7.859375,18.7578125 C8.22395833,18.9192708 8.60416667,19 9,19 L9,19 L23,19 Z M23,17 L9,17 C8.72916667,17 8.49479167,16.9010417 8.296875,16.703125 C8.09895833,16.5052083 8,16.2708333 8,16 L8,16 L8,8 C8,7.72916667 8.09895833,7.49479167 8.296875,7.296875 C8.49479167,7.09895833 8.72916667,7 9,7 L9,7 L23,7 C23.2708333,7 23.5052083,7.09895833 23.703125,7.296875 C23.9010417,7.49479167 24,7.72916667 24,8 L24,8 L24,16 C24,16.2708333 23.9010417,16.5052083 23.703125,16.703125 C23.5052083,16.9010417 23.2708333,17 23,17 L23,17 Z M12,13 C12.2708333,13 12.5260417,12.9453125 12.765625,12.8359375 C13.0052083,12.7265625 13.2161458,12.5807292 13.3984375,12.3984375 C13.5807292,12.2161458 13.7265625,12.0026042 13.8359375,11.7578125 C13.9453125,11.5130208 14,11.2604167 14,11 C14,10.7291667 13.9453125,10.4739583 13.8359375,10.234375 C13.7265625,9.99479167 13.5807292,9.78385417 13.3984375,9.6015625 C13.2161458,9.41927083 13.0052083,9.2734375 12.765625,9.1640625 C12.5260417,9.0546875 12.2708333,9 12,9 C11.7395833,9 11.4869792,9.0546875 11.2421875,9.1640625 C10.9973958,9.2734375 10.7838542,9.41927083 10.6015625,9.6015625 C10.4192708,9.78385417 10.2734375,9.99479167 10.1640625,10.234375 C10.0546875,10.4739583 10,10.7291667 10,11 C10,11.2604167 10.0546875,11.5130208 10.1640625,11.7578125 C10.2734375,12.0026042 10.4192708,12.2161458 10.6015625,12.3984375 C10.7838542,12.5807292 10.9973958,12.7265625 11.2421875,12.8359375 C11.4869792,12.9453125 11.7395833,13 12,13 Z M20,13 C20.2708333,13 20.5260417,12.9453125 20.765625,12.8359375 C21.0052083,12.7265625 21.2161458,12.5807292 21.3984375,12.3984375 C21.5807292,12.2161458 21.7265625,12.0026042 21.8359375,11.7578125 C21.9453125,11.5130208 22,11.2604167 22,11 C22,10.7291667 21.9453125,10.4739583 21.8359375,10.234375 C21.7265625,9.99479167 21.5807292,9.78385417 21.3984375,9.6015625 C21.2161458,9.41927083 21.0052083,9.2734375 20.765625,9.1640625 C20.5260417,9.0546875 20.2708333,9 20,9 C19.7395833,9 19.4869792,9.0546875 19.2421875,9.1640625 C18.9973958,9.2734375 18.7838542,9.41927083 18.6015625,9.6015625 C18.4192708,9.78385417 18.2734375,9.99479167 18.1640625,10.234375 C18.0546875,10.4739583 18,10.7291667 18,11 C18,11.2604167 18.0546875,11.5130208 18.1640625,11.7578125 C18.2734375,12.0026042 18.4192708,12.2161458 18.6015625,12.3984375 C18.7838542,12.5807292 18.9973958,12.7265625 19.2421875,12.8359375 C19.4869792,12.9453125 19.7395833,13 20,13 Z M16,30.5 C16.75,30.5 17.6145833,30.4583333 18.59375,30.375 C19.5729167,30.2916667 20.5807292,30.1432292 21.6171875,29.9296875 C22.6536458,29.7161458 23.6744792,29.4322917 24.6796875,29.078125 C25.6848958,28.7239583 26.5807292,28.2734375 27.3671875,27.7265625 C28.1536458,27.1796875 28.7890625,26.53125 29.2734375,25.78125 C29.7578125,25.03125 30,24.15625 30,23.15625 L30,23.15625 L30,22 C30,21.7291667 29.9010417,21.4947917 29.703125,21.296875 C29.5052083,21.0989583 29.2708333,21 29,21 L29,21 L3,21 C2.72916667,21 2.49479167,21.0989583 2.296875,21.296875 C2.09895833,21.4947917 2,21.7291667 2,22 L2,22 L2,23.15625 C2,23.8854167 2.140625,24.5520833 2.421875,25.15625 C2.703125,25.7604167 3.0859375,26.3020833 3.5703125,26.78125 C4.0546875,27.2604167 4.61979167,27.6875 5.265625,28.0625 C5.91145833,28.4375 6.60416667,28.7604167 7.34375,29.03125 C8.08333333,29.3020833 8.84635417,29.53125 9.6328125,29.71875 C10.4192708,29.90625 11.1927083,30.0572917 11.953125,30.171875 C12.7135417,30.2864583 13.4401042,30.3697917 14.1328125,30.421875 C14.8255208,30.4739583 15.4479167,30.5 16,30.5 Z M16,28.5 C15.5833333,28.5 15.09375,28.4817708 14.53125,28.4453125 C13.96875,28.4088542 13.3697917,28.3515625 12.734375,28.2734375 C12.0989583,28.1953125 11.4401042,28.0885417 10.7578125,27.953125 C10.0755208,27.8177083 9.41145833,27.6484375 8.765625,27.4453125 C8.11979167,27.2421875 7.5078125,27.0026042 6.9296875,26.7265625 C6.3515625,26.4505208 5.84635417,26.1302083 5.4140625,25.765625 C4.98177083,25.4010417 4.63802083,24.9895833 4.3828125,24.53125 C4.12760417,24.0729167 4,23.5625 4,23 L4,23 L28,23 C28,23.7604167 27.78125,24.4270833 27.34375,25 C26.90625,25.5729167 26.3359375,26.0625 25.6328125,26.46875 C24.9296875,26.875 24.1354167,27.2083333 23.25,27.46875 C22.3645833,27.7291667 21.4765625,27.9375 20.5859375,28.09375 C19.6953125,28.25 18.8463542,28.3567708 18.0390625,28.4140625 C17.2317708,28.4713542 16.5520833,28.5 16,28.5 Z" id="" fill="#6264A7" fill-rule="nonzero"></path>
    </g>
</svg>