<svg xmlns="http://www.w3.org/2000/svg" viewBox="0 0 14 14"><path d="M14 7a6.75 6.75 0 01-.25 1.85 7.06 7.06 0 01-1.81 3.09 7.06 7.06 0 01-3.09 1.81 6.89 6.89 0 01-3.7 0A7.11 7.11 0 013.48 13 7.07 7.07 0 01.25 8.85a6.89 6.89 0 010-3.7 7.07 7.07 0 014.9-4.9 6.89 6.89 0 013.7 0 7.07 7.07 0 014.9 4.9A6.75 6.75 0 0114 7zm-1.47 0a5.37 5.37 0 00-.2-1.46 5.58 5.58 0 00-3.87-3.87 5.5 5.5 0 00-2.93 0 5.58 5.58 0 00-3.86 3.87 5.5 5.5 0 000 2.93 5.58 5.58 0 003.87 3.87 5.5 5.5 0 002.93 0 5.58 5.58 0 003.87-3.87A5.37 5.37 0 0012.53 7zm-2 0a.72.72 0 01-.07.32 1.52 1.52 0 01-.17.28l-2.23 2.64a.63.63 0 01-.22.17.6.6 0 01-.26.06.62.62 0 01-.28-.06.78.78 0 01-.23-.17.8.8 0 01-.15-.24.77.77 0 01-.05-.28A1.11 1.11 0 017 9.3q.12-.27.28-.56l.31-.57.24-.42H4.26A.69.69 0 014 7.68a.82.82 0 01-.41-.41.7.7 0 010-.57.81.81 0 01.17-.24.86.86 0 01.24-.17.66.66 0 01.29-.06h3.59l-.27-.42-.34-.54Q7.1 5 7 4.72a1.05 1.05 0 01-.13-.43A.77.77 0 016.9 4a.79.79 0 01.1-.24.76.76 0 01.23-.17.62.62 0 01.28-.06.72.72 0 01.39.18 4.54 4.54 0 01.52.47q.28.29.57.64l.55.68.46.61.31.41.09.21a.64.64 0 01.1.27z" fill="#5558af" data-name="Layer 2"/></svg>