<svg xmlns="http://www.w3.org/2000/svg" viewBox="0 0 14 14"><defs><style>.cls-1{fill:#5558af;}</style></defs><title>cta-arrow</title><g id="Layer_2" data-name="Layer 2"><g id="content"><path class="cls-1" d="M14,7a6.75,6.75,0,0,1-.25,1.85,7.06,7.06,0,0,1-1.81,3.09,7.06,7.06,0,0,1-3.09,1.81,6.89,6.89,0,0,1-3.7,0A7.11,7.11,0,0,1,3.48,13,7.07,7.07,0,0,1,.25,8.85a6.89,6.89,0,0,1,0-3.7A7.07,7.07,0,0,1,5.15.25a6.89,6.89,0,0,1,3.7,0,7.07,7.07,0,0,1,4.9,4.9A6.75,6.75,0,0,1,14,7ZM12.53,7a5.37,5.37,0,0,0-.2-1.46A5.58,5.58,0,0,0,8.46,1.67a5.5,5.5,0,0,0-2.93,0A5.58,5.58,0,0,0,1.67,5.54a5.5,5.5,0,0,0,0,2.93,5.58,5.58,0,0,0,3.87,3.87,5.5,5.5,0,0,0,2.93,0,5.58,5.58,0,0,0,3.87-3.87A5.37,5.37,0,0,0,12.53,7Zm-2,0a.72.72,0,0,1-.07.32,1.52,1.52,0,0,1-.17.28L8.06,10.24a.63.63,0,0,1-.22.17.6.6,0,0,1-.26.06.62.62,0,0,1-.28-.06.78.78,0,0,1-.23-.17A.8.8,0,0,1,6.92,10a.77.77,0,0,1-.05-.28A1.11,1.11,0,0,1,7,9.3q.12-.27.28-.56l.31-.57.24-.42H4.26A.69.69,0,0,1,4,7.68a.82.82,0,0,1-.41-.41.7.7,0,0,1,0-.57.81.81,0,0,1,.17-.24A.86.86,0,0,1,4,6.29a.66.66,0,0,1,.29-.06H7.88l-.27-.42-.34-.54Q7.1,5,7,4.72a1.05,1.05,0,0,1-.13-.43A.77.77,0,0,1,6.9,4,.79.79,0,0,1,7,3.76a.76.76,0,0,1,.23-.17.62.62,0,0,1,.28-.06.72.72,0,0,1,.39.18,4.54,4.54,0,0,1,.52.47q.28.29.57.64l.55.68.46.61.31.41h0l.09.21A.64.64,0,0,1,10.5,7Z"/></g></g></svg>