<svg xmlns="http://www.w3.org/2000/svg" viewBox="0 0 16 16"><path d="M14 14.5a1.38 1.38 0 01-.12.57 1.6 1.6 0 01-.33.48 1.56 1.56 0 01-.48.33 1.38 1.38 0 01-.57.12h-9a1.38 1.38 0 01-.57-.12 1.56 1.56 0 01-.48-.33 1.6 1.6 0 01-.33-.48A1.38 1.38 0 012 14.5v-9a1.36 1.36 0 01.12-.57 2.06 2.06 0 01.32-.5l3.48-4a1.33 1.33 0 01.49-.31A1.57 1.57 0 017 0h5.5a1.4 1.4 0 01.57.12 1.59 1.59 0 01.8.8 1.38 1.38 0 01.13.58zm-1 0v-13a.48.48 0 00-.15-.35.48.48 0 00-.35-.15H7v5H3v8.5a.51.51 0 00.5.5h9a.51.51 0 00.5-.5zM6 5V1.9L3.27 5zm.14 6.5a.39.39 0 01-.37.38.44.44 0 01-.22-.12 3.53 3.53 0 01-.33-.3l-.37-.41c-.13-.15-.24-.29-.35-.43s-.19-.27-.26-.37a.55.55 0 01-.1-.24.58.58 0 01.1-.24c.07-.11.15-.24.26-.38s.22-.29.35-.43l.37-.41a3.68 3.68 0 01.33-.3.44.44 0 01.22-.12.39.39 0 01.38.38.66.66 0 01-.15.33 5 5 0 01-.34.43l-.38.43L5 10l.28.31.38.42a5 5 0 01.34.43.66.66 0 01.13.34zM9.38 7a2.44 2.44 0 01-.08.3l-.22.7-.3 1-.36 1-.36 1.09-.32 1-.25.7a3.11 3.11 0 01-.12.32 1 1 0 01-.14.18.29.29 0 01-.21.07.37.37 0 01-.39-.36 2.5 2.5 0 01.08-.3l.21-.7.3-1 .36-1 .36-1.09.32-1 .25-.7a3.35 3.35 0 01.13-.32 1.12 1.12 0 01.14-.18.29.29 0 01.22-.08.37.37 0 01.26.11.36.36 0 01.12.26zm2.5 3a.55.55 0 01-.1.24q-.1.16-.26.38c-.1.14-.22.29-.35.43l-.37.41a3.53 3.53 0 01-.33.3.44.44 0 01-.22.12.39.39 0 01-.38-.37.66.66 0 01.14-.34 5 5 0 01.34-.43l.38-.42L11 10l-.28-.3-.38-.43a5 5 0 01-.34-.43.66.66 0 01-.14-.34.39.39 0 01.38-.37.44.44 0 01.22.12 3.68 3.68 0 01.33.3l.37.41c.13.15.24.29.35.43s.19.27.26.38a.58.58 0 01.11.23z" fill="#5759a7"/></svg>