<?xml version="1.0" standalone="no"?>
<!DOCTYPE svg PUBLIC "-//W3C//DTD SVG 20010904//EN"
 "http://www.w3.org/TR/2001/REC-SVG-20010904/DTD/svg10.dtd">
<svg version="1.0" xmlns="http://www.w3.org/2000/svg"
 width="191.000000pt" height="190.000000pt" viewBox="0 0 191.000000 190.000000"
 preserveAspectRatio="xMidYMid meet">
<metadata>
Created by potrace 1.16, written by Peter Selinger 2001-2019
</metadata>
<g transform="translate(0.000000,190.000000) scale(0.100000,-0.100000)"
fill="#000000" stroke="none">
<path d="M317 1378 c-224 -415 -207 -380 -166 -342 19 17 122 109 229 206 245
220 241 212 173 358 -25 55 -50 100 -54 100 -4 0 -85 -145 -182 -322z"/>
<path d="M1320 1679 c-152 -60 -558 -218 -572 -223 -10 -3 -18 -9 -18 -13 0
-5 8 -13 18 -19 501 -317 672 -420 680 -415 8 4 8 29 2 76 -4 39 -13 122 -19
185 -24 246 -43 425 -44 426 -1 1 -22 -7 -47 -17z"/>
<path d="M696 1365 c-18 -13 -18 -29 -7 -425 6 -226 13 -416 16 -421 4 -5 13
-9 21 -9 7 0 155 87 326 194 286 178 313 197 319 226 6 30 4 34 -45 64 -69 44
-588 371 -601 378 -6 4 -19 0 -29 -7z"/>
<path d="M378 1169 c-123 -111 -231 -209 -241 -218 -17 -16 -6 -27 238 -230
150 -125 260 -210 265 -205 5 5 5 154 0 359 -5 193 -10 380 -10 416 0 49 -4
68 -14 72 -9 4 -97 -68 -238 -194z"/>
<path d="M1508 878 c-10 -18 -22 -78 -28 -133 -33 -329 -50 -508 -48 -511 3
-2 139 242 264 475 22 42 54 102 72 134 18 32 32 60 32 63 0 2 -62 4 -138 4
l-137 0 -17 -32z"/>
<path d="M127 840 c11 -19 68 -123 126 -230 58 -107 122 -224 141 -260 20 -36
50 -93 68 -127 18 -35 35 -63 38 -63 3 0 31 51 62 113 83 167 91 150 -191 385
-123 103 -234 194 -245 202 -20 14 -20 14 1 -20z"/>
<path d="M1264 774 c-76 -48 -166 -103 -199 -123 -33 -21 -117 -73 -187 -116
-71 -43 -128 -83 -128 -90 0 -6 51 -33 113 -60 61 -27 199 -86 305 -132 107
-47 197 -82 200 -79 3 3 20 155 39 338 33 329 33 347 2 348 -3 0 -68 -39 -145
-86z"/>
<path d="M715 381 c-3 -6 -16 -11 -28 -11 -19 0 -32 -20 -80 -115 -31 -63 -57
-117 -57 -120 0 -3 170 -5 377 -5 217 0 373 4 367 9 -7 6 -326 147 -560 247
-7 3 -15 1 -19 -5z"/>
</g>
</svg>
