<?xml version="1.0" encoding="UTF-8"?>
<svg width="32px" height="32px" viewBox="0 0 32 32" version="1.1" xmlns="http://www.w3.org/2000/svg" xmlns:xlink="http://www.w3.org/1999/xlink">
    <title>Messaging</title>
    <g id="Messaging" stroke="none" stroke-width="1" fill="none" fill-rule="evenodd">
        <path d="M26.6103516,29 C26.8473307,29 27.0716146,28.9534505 27.2832031,28.8603516 C27.4947917,28.7672526 27.6809896,28.6402995 27.8417969,28.4794922 C28.0026042,28.3186849 28.1316732,28.132487 28.2290039,27.9208984 C28.3263346,27.7093099 28.375,27.485026 28.375,27.2480469 L28.375,27.2480469 L28.375,5.55175781 C28.375,5.2047526 28.3072917,4.87679036 28.171875,4.56787109 C28.0364583,4.25895182 27.8502604,3.98811849 27.6132812,3.75537109 C27.3763021,3.5226237 27.1033529,3.33854167 26.7944336,3.203125 C26.4855143,3.06770833 26.1575521,3 25.8105469,3 L25.8105469,3 L6.56445312,3 C6.21744792,3 5.88948568,3.06770833 5.58056641,3.203125 C5.27164714,3.33854167 4.99869792,3.5226237 4.76171875,3.75537109 C4.52473958,3.98811849 4.33854167,4.25895182 4.203125,4.56787109 C4.06770833,4.87679036 4,5.2047526 4,5.55175781 L4,5.55175781 L4,20.3037109 C4,20.6591797 4.05078125,20.9723307 4.15234375,21.2431641 C4.25390625,21.5139974 4.39778646,21.7552083 4.58398438,21.9667969 C4.77018229,22.1783854 4.99235026,22.3624674 5.25048828,22.519043 C5.5086263,22.6756185 5.79003906,22.813151 6.09472656,22.9316406 C6.83951823,23.2109375 7.64778646,23.4288737 8.51953125,23.5854492 C9.39127604,23.7420247 10.2820638,23.8562826 11.1918945,23.9282227 C12.1017253,24.0001628 13.0052083,24.0424805 13.9023438,24.0551758 C14.7994792,24.0678711 15.6458333,24.0742188 16.4414062,24.0742188 C16.9746094,24.0742188 17.5014648,24.069987 18.0219727,24.0615234 C18.5424805,24.0530599 19.0693359,24.0276693 19.6025391,23.9853516 C19.8479818,23.9684245 20.0976562,23.9451497 20.3515625,23.9155273 C20.6054688,23.8859049 20.8551432,23.8710938 21.1005859,23.8710938 C21.210612,23.8710938 21.3841146,23.9980469 21.6210938,24.2519531 C21.8580729,24.5058594 22.133138,24.8232422 22.4462891,25.2041016 C22.7594401,25.5849609 23.1000977,25.9954427 23.4682617,26.4355469 C23.8364258,26.875651 24.2067057,27.2861328 24.5791016,27.6669922 C24.9514974,28.0478516 25.3133138,28.3652344 25.6645508,28.6191406 C26.0157878,28.8730469 26.3310547,29 26.6103516,29 Z M26.6611328,27.3623047 C26.3479818,27.2099609 26.0390625,26.9772135 25.734375,26.6640625 C25.4296875,26.3509115 25.1292318,26.0039062 24.8330078,25.6230469 C24.5367839,25.2421875 24.238444,24.8528646 23.9379883,24.4550781 C23.6375326,24.0572917 23.3349609,23.6954753 23.0302734,23.3696289 C22.7255859,23.0437826 22.4145508,22.7750651 22.097168,22.5634766 C21.7797852,22.351888 21.4560547,22.2460938 21.1259766,22.2460938 C20.2965495,22.2460938 19.4734701,22.2799479 18.6567383,22.3476562 C17.8400065,22.4153646 17.0169271,22.4492188 16.1875,22.4492188 C15.9505208,22.4492188 15.6352539,22.4471029 15.2416992,22.4428711 C14.8481445,22.4386393 14.4059245,22.4280599 13.9150391,22.4111328 C13.4241536,22.3942057 12.9036458,22.370931 12.3535156,22.3413086 C11.8033854,22.3116862 11.2511393,22.2714844 10.6967773,22.2207031 C10.1424154,22.1699219 9.60286458,22.1064453 9.078125,22.0302734 C8.55338542,21.9541016 8.07519531,21.8631185 7.64355469,21.7573242 C7.21191406,21.6515299 6.83740234,21.5309245 6.52001953,21.3955078 C6.20263672,21.2600911 5.97623698,21.1035156 5.84082031,20.9257812 C5.6969401,20.7480469 5.625,20.5406901 5.625,20.3037109 L5.625,20.3037109 L5.625,5.55175781 C5.625,5.3063151 5.72021484,5.09049479 5.91064453,4.90429688 C6.10107422,4.71809896 6.31901042,4.625 6.56445312,4.625 L6.56445312,4.625 L25.8105469,4.625 C26.0644531,4.625 26.2845052,4.71598307 26.4707031,4.89794922 C26.656901,5.07991536 26.75,5.29785156 26.75,5.55175781 L26.75,5.55175781 L26.75,27.2480469 L26.6611328,27.3623047 Z M21.875,11.125 L21.875,9.5 L10.5,9.5 L10.5,11.125 L21.875,11.125 Z M18.0791016,16 L18.0791016,14.375 L10.5,14.375 L10.5,16 L18.0791016,16 Z" id="" fill="#6264A7" fill-rule="nonzero"></path>
    </g>
</svg>