<svg xmlns="http://www.w3.org/2000/svg" viewBox="0 0 34 50"><defs><style>.cls-1{fill:#fff;}</style></defs><title>Asset 13</title><g id="Layer_2" data-name="Layer 2"><g id="content"><path class="cls-1" d="M33.36,16.68a16.34,16.34,0,0,1-.46,3.84,16.62,16.62,0,0,1-1.32,3.6,17.09,17.09,0,0,1-2.1,3.21A16.34,16.34,0,0,1,26.69,30V47.15a2.81,2.81,0,0,1-.2,1,2.9,2.9,0,0,1-.55.89,2.57,2.57,0,0,1-.82.61,2.41,2.41,0,0,1-1,.22A2.49,2.49,0,0,1,23,49.68a2.45,2.45,0,0,1-.87-.68l-5.47-6.57L11.21,49a2.59,2.59,0,0,1-.87.69,2.38,2.38,0,0,1-1.06.25,2.3,2.3,0,0,1-1-.23,2.85,2.85,0,0,1-.82-.61,2.72,2.72,0,0,1-.55-.89,2.91,2.91,0,0,1-.2-1.06V30a16.31,16.31,0,0,1-2.8-2.67,17.07,17.07,0,0,1-2.1-3.21,16.6,16.6,0,0,1-1.32-3.6A16.32,16.32,0,0,1,0,16.68a16.11,16.11,0,0,1,1.32-6.48A16.85,16.85,0,0,1,10.2,1.32,16.12,16.12,0,0,1,16.68,0a16.12,16.12,0,0,1,6.48,1.32A16.85,16.85,0,0,1,32,10.21,16.11,16.11,0,0,1,33.36,16.68Zm-3.34,0A12.85,12.85,0,0,0,29,11.5a13.52,13.52,0,0,0-7.1-7.1,12.85,12.85,0,0,0-5.19-1.06A12.84,12.84,0,0,0,11.5,4.39a13.52,13.52,0,0,0-7.1,7.1,12.84,12.84,0,0,0-1.06,5.19,12.85,12.85,0,0,0,1.06,5.19A13.52,13.52,0,0,0,11.5,29,12.85,12.85,0,0,0,16.68,30,12.85,12.85,0,0,0,21.87,29a13.52,13.52,0,0,0,7.1-7.1A12.85,12.85,0,0,0,30,16.68ZM23.36,45.23V32a18.11,18.11,0,0,1-3.27,1,16,16,0,0,1-6.8,0A18.09,18.09,0,0,1,10,32V45.23l4.74-5.68a2.32,2.32,0,0,1,.87-.66,2.62,2.62,0,0,1,2.11,0,2.33,2.33,0,0,1,.87.66Z"/></g></g></svg>