<svg xmlns="http://www.w3.org/2000/svg" viewBox="0 0 34 50"><path d="M33.36 16.68a16.34 16.34 0 01-.46 3.84 16.62 16.62 0 01-1.32 3.6 17.09 17.09 0 01-2.1 3.21A16.34 16.34 0 0126.69 30v17.15a2.81 2.81 0 01-.2 1 2.9 2.9 0 01-.55.89 2.57 2.57 0 01-.82.61 2.41 2.41 0 01-1 .22 2.49 2.49 0 01-1.12-.19 2.45 2.45 0 01-.87-.68l-5.47-6.57L11.21 49a2.59 2.59 0 01-.87.69 2.38 2.38 0 01-1.06.25 2.3 2.3 0 01-1-.23 2.85 2.85 0 01-.82-.61 2.72 2.72 0 01-.55-.89 2.91 2.91 0 01-.2-1.06V30a16.31 16.31 0 01-2.8-2.67 17.07 17.07 0 01-2.1-3.21 16.6 16.6 0 01-1.32-3.6A16.32 16.32 0 010 16.68a16.11 16.11 0 011.32-6.48 16.85 16.85 0 018.88-8.88A16.12 16.12 0 0116.68 0a16.12 16.12 0 016.48 1.32A16.85 16.85 0 0132 10.21a16.11 16.11 0 011.36 6.47zm-3.34 0A12.85 12.85 0 0029 11.5a13.52 13.52 0 00-7.1-7.1 12.85 12.85 0 00-5.19-1.06 12.84 12.84 0 00-5.21 1.05 13.52 13.52 0 00-7.1 7.1 12.84 12.84 0 00-1.06 5.19 12.85 12.85 0 001.06 5.19A13.52 13.52 0 0011.5 29a12.85 12.85 0 005.18 1 12.85 12.85 0 005.19-1 13.52 13.52 0 007.1-7.1A12.85 12.85 0 0030 16.68zm-6.66 28.55V32a18.11 18.11 0 01-3.27 1 16 16 0 01-6.8 0A18.09 18.09 0 0110 32v13.23l4.74-5.68a2.32 2.32 0 01.87-.66 2.62 2.62 0 012.11 0 2.33 2.33 0 01.87.66z" fill="#fff" data-name="Layer 2"/></svg>