<svg xmlns="http://www.w3.org/2000/svg" viewBox="0 0 18 14.63"><defs><style>.cls-1{fill:#fff;}</style></defs><title>resources_community</title><g id="Layer_2" data-name="Layer 2"><g id="content"><path class="cls-1" d="M4.5,3.38a2.12,2.12,0,0,1-.18.87,2.32,2.32,0,0,1-1.2,1.2,2.17,2.17,0,0,1-1.73,0,2.32,2.32,0,0,1-1.2-1.2,2.17,2.17,0,0,1,0-1.73,2.33,2.33,0,0,1,1.2-1.2,2.18,2.18,0,0,1,1.73,0,2.33,2.33,0,0,1,1.2,1.2A2.12,2.12,0,0,1,4.5,3.38Zm0,8.51a.54.54,0,0,1-.17.39.53.53,0,0,1-.4.17H3.38a6.09,6.09,0,0,1-1.14-.11,3.7,3.7,0,0,1-1.09-.39,2.42,2.42,0,0,1-.82-.72A1.87,1.87,0,0,1,0,10.11V6.75H3.94a.56.56,0,0,1,0,1.13H1.13v2.23a.87.87,0,0,0,.15.52,1.18,1.18,0,0,0,.39.35,2,2,0,0,0,.55.21,4.81,4.81,0,0,0,.62.1l.61,0h.51a.57.57,0,0,1,.56.56ZM3.38,3.38a1,1,0,0,0-.09-.43,1.18,1.18,0,0,0-.61-.61,1,1,0,0,0-.86,0,1.21,1.21,0,0,0-.36.25,1.19,1.19,0,0,0-.25.36,1,1,0,0,0-.09.43,1,1,0,0,0,.09.43,1.21,1.21,0,0,0,.6.6,1,1,0,0,0,.43.09,1,1,0,0,0,.43-.09A1.19,1.19,0,0,0,3,4.16a1.21,1.21,0,0,0,.25-.36A1,1,0,0,0,3.38,3.38Zm9,8.92a1.87,1.87,0,0,1-.32,1.12,2.38,2.38,0,0,1-.82.72,3.79,3.79,0,0,1-1.09.38A6.09,6.09,0,0,1,9,14.63a5.81,5.81,0,0,1-1.14-.12,3.88,3.88,0,0,1-1.09-.39A2.42,2.42,0,0,1,6,13.4a1.83,1.83,0,0,1-.33-1.11V5.63h6.75Zm-1.13-10a2.12,2.12,0,0,1-.18.87,2.32,2.32,0,0,1-1.2,1.2,2.17,2.17,0,0,1-1.73,0,2.32,2.32,0,0,1-1.2-1.2,2.17,2.17,0,0,1,0-1.73A2.33,2.33,0,0,1,8.14.18a2.18,2.18,0,0,1,1.73,0,2.33,2.33,0,0,1,1.2,1.2A2.13,2.13,0,0,1,11.25,2.25Zm0,10V6.75H6.75V12.3a.83.83,0,0,0,.25.62,1.67,1.67,0,0,0,.59.36,3.16,3.16,0,0,0,.73.17,6.09,6.09,0,0,0,.68,0,6.1,6.1,0,0,0,.68,0,3.16,3.16,0,0,0,.73-.17,1.67,1.67,0,0,0,.59-.36A.83.83,0,0,0,11.25,12.3Zm-1.13-10A1,1,0,0,0,10,1.82a1.18,1.18,0,0,0-.61-.61,1,1,0,0,0-.86,0,1.21,1.21,0,0,0-.36.25A1.19,1.19,0,0,0,8,1.82a1,1,0,0,0-.09.43A1,1,0,0,0,8,2.68a1.21,1.21,0,0,0,.6.6,1,1,0,0,0,.86,0A1.2,1.2,0,0,0,9.79,3,1.21,1.21,0,0,0,10,2.68,1,1,0,0,0,10.13,2.25ZM18,3.38a2.12,2.12,0,0,1-.18.87,2.32,2.32,0,0,1-1.2,1.2,2.17,2.17,0,0,1-1.73,0,2.32,2.32,0,0,1-1.2-1.2,2.17,2.17,0,0,1,0-1.73,2.33,2.33,0,0,1,1.2-1.2,2.18,2.18,0,0,1,1.73,0,2.33,2.33,0,0,1,1.2,1.2A2.12,2.12,0,0,1,18,3.38Zm0,6.73a1.87,1.87,0,0,1-.32,1.12,2.43,2.43,0,0,1-.82.72,3.71,3.71,0,0,1-1.09.39,6.09,6.09,0,0,1-1.14.11h-.56a.53.53,0,0,1-.4-.17.56.56,0,0,1,.4-1h.51l.61,0a4.81,4.81,0,0,0,.62-.1,2,2,0,0,0,.55-.21,1.18,1.18,0,0,0,.39-.35.87.87,0,0,0,.15-.52V7.88H14.07a.56.56,0,0,1,0-1.12H18ZM16.88,3.38a1,1,0,0,0-.09-.43,1.18,1.18,0,0,0-.61-.61,1,1,0,0,0-.43-.09,1,1,0,0,0-.43.09,1.19,1.19,0,0,0-.6.61,1,1,0,0,0-.09.43,1,1,0,0,0,.09.43,1.21,1.21,0,0,0,.6.6,1,1,0,0,0,.43.09,1,1,0,0,0,.43-.09,1.19,1.19,0,0,0,.61-.6A1,1,0,0,0,16.88,3.38Z"/></g></g></svg>