<svg xmlns="http://www.w3.org/2000/svg" viewBox="0 0 16 16"><defs><style>.cls-1{fill:#fff;}</style></defs><title>help</title><g id="Layer_2" data-name="Layer 2"><g id="content"><path class="cls-1" d="M16,8a7.74,7.74,0,0,1-.29,2.12A8.15,8.15,0,0,1,14.91,12,8.09,8.09,0,0,1,12,14.9a8.13,8.13,0,0,1-1.91.81,7.93,7.93,0,0,1-4.24,0A8.13,8.13,0,0,1,4,14.9,8.09,8.09,0,0,1,1.1,12a8.14,8.14,0,0,1-.81-1.91,7.93,7.93,0,0,1,0-4.24A8.14,8.14,0,0,1,1.1,4,8.09,8.09,0,0,1,4,1.1,8.13,8.13,0,0,1,5.88.29a7.93,7.93,0,0,1,4.24,0A8.13,8.13,0,0,1,12,1.1,8.09,8.09,0,0,1,14.91,4a8.15,8.15,0,0,1,.81,1.91A7.74,7.74,0,0,1,16,8ZM14.32,8a6.13,6.13,0,0,0-.23-1.67A6.36,6.36,0,0,0,9.67,1.91a6.28,6.28,0,0,0-3.34,0A6.36,6.36,0,0,0,1.91,6.33a6.28,6.28,0,0,0,0,3.34,6.36,6.36,0,0,0,4.42,4.41,6.28,6.28,0,0,0,3.34,0,6.36,6.36,0,0,0,4.41-4.41A6.13,6.13,0,0,0,14.32,8ZM10,6.6a2.15,2.15,0,0,1-.07.62,1.47,1.47,0,0,1-.19.41,1.32,1.32,0,0,1-.27.29l-.3.25a2.86,2.86,0,0,0-.3.31,1.62,1.62,0,0,0-.26.45l-.1.27a.93.93,0,0,1-.12.23.48.48,0,0,1-.18.15.68.68,0,0,1-.3.05.62.62,0,0,1-.27-.06.76.76,0,0,1-.22-.15.75.75,0,0,1-.15-.22.64.64,0,0,1-.06-.27,1.85,1.85,0,0,1,.1-.65,1.68,1.68,0,0,1,.26-.46,2.2,2.2,0,0,1,.34-.34l.34-.28a1.68,1.68,0,0,0,.26-.27.53.53,0,0,0,.1-.32.62.62,0,0,0-.06-.27.83.83,0,0,0-.15-.22A.73.73,0,0,0,8.17,6a.62.62,0,0,0-.27-.06A.59.59,0,0,0,7.53,6a.74.74,0,0,0-.21.26,1.59,1.59,0,0,0-.12.34,1.62,1.62,0,0,1-.12.34.74.74,0,0,1-.21.26.59.59,0,0,1-.37.11.62.62,0,0,1-.27-.06.76.76,0,0,1-.37-.37.62.62,0,0,1-.06-.27A2,2,0,0,1,6,5.8a2.21,2.21,0,0,1,.45-.67,2.14,2.14,0,0,1,.67-.46,2,2,0,0,1,1.61,0,2.14,2.14,0,0,1,.67.46,2.21,2.21,0,0,1,.45.67A2,2,0,0,1,10,6.6ZM8.6,10.8a.64.64,0,0,1-.06.27.75.75,0,0,1-.15.22.77.77,0,0,1-.22.15.63.63,0,0,1-.53,0,.76.76,0,0,1-.22-.15.75.75,0,0,1-.15-.22.64.64,0,0,1-.06-.27.62.62,0,0,1,.06-.27.76.76,0,0,1,.37-.37.63.63,0,0,1,.53,0,.76.76,0,0,1,.37.37A.62.62,0,0,1,8.6,10.8Z"/></g></g></svg>