<svg xmlns="http://www.w3.org/2000/svg" viewBox="0 0 16 16"><path d="M16 8a7.74 7.74 0 01-.29 2.12 8.15 8.15 0 01-.8 1.88A8.09 8.09 0 0112 14.9a8.13 8.13 0 01-1.91.81 7.93 7.93 0 01-4.24 0A8.13 8.13 0 014 14.9 8.09 8.09 0 011.1 12a8.14 8.14 0 01-.81-1.91 7.93 7.93 0 010-4.24A8.14 8.14 0 011.1 4 8.09 8.09 0 014 1.1 8.13 8.13 0 015.88.29a7.93 7.93 0 014.24 0A8.13 8.13 0 0112 1.1 8.09 8.09 0 0114.91 4a8.15 8.15 0 01.81 1.91A7.74 7.74 0 0116 8zm-1.68 0a6.13 6.13 0 00-.23-1.67 6.36 6.36 0 00-4.42-4.42 6.28 6.28 0 00-3.34 0 6.36 6.36 0 00-4.42 4.42 6.28 6.28 0 000 3.34 6.36 6.36 0 004.42 4.41 6.28 6.28 0 003.34 0 6.36 6.36 0 004.41-4.41A6.13 6.13 0 0014.32 8zM10 6.6a2.15 2.15 0 01-.07.62 1.47 1.47 0 01-.19.41 1.32 1.32 0 01-.27.29l-.3.25a2.86 2.86 0 00-.3.31 1.62 1.62 0 00-.26.45l-.1.27a.93.93 0 01-.12.23.48.48 0 01-.18.15.68.68 0 01-.3.05.62.62 0 01-.27-.06.76.76 0 01-.22-.15.75.75 0 01-.15-.22.64.64 0 01-.06-.27 1.85 1.85 0 01.1-.65 1.68 1.68 0 01.26-.46 2.2 2.2 0 01.34-.34l.34-.28a1.68 1.68 0 00.26-.27.53.53 0 00.1-.32.62.62 0 00-.06-.27.83.83 0 00-.15-.22.73.73 0 00-.23-.12.62.62 0 00-.27-.06.59.59 0 00-.37.06.74.74 0 00-.21.26 1.59 1.59 0 00-.12.34 1.62 1.62 0 01-.12.34.74.74 0 01-.21.26.59.59 0 01-.37.11.62.62 0 01-.27-.06.76.76 0 01-.37-.37.62.62 0 01-.06-.27A2 2 0 016 5.8a2.21 2.21 0 01.45-.67 2.14 2.14 0 01.67-.46 2 2 0 011.61 0 2.14 2.14 0 01.67.46 2.21 2.21 0 01.45.67 2 2 0 01.15.8zm-1.4 4.2a.64.64 0 01-.06.27.75.75 0 01-.15.22.77.77 0 01-.22.15.63.63 0 01-.53 0 .76.76 0 01-.22-.15.75.75 0 01-.15-.22.64.64 0 01-.06-.27.62.62 0 01.06-.27.76.76 0 01.37-.37.63.63 0 01.53 0 .76.76 0 01.37.37.62.62 0 01.06.27z" fill="#fff" data-name="Layer 2"/></svg>