<svg xmlns="http://www.w3.org/2000/svg" viewBox="0 0 18 14.63"><path d="M4.5 3.38a2.12 2.12 0 01-.18.87 2.32 2.32 0 01-1.2 1.2 2.17 2.17 0 01-1.73 0 2.32 2.32 0 01-1.2-1.2 2.17 2.17 0 010-1.73 2.33 2.33 0 011.2-1.2 2.18 2.18 0 011.73 0 2.33 2.33 0 011.2 1.2 2.12 2.12 0 01.18.86zm0 8.51a.54.54 0 01-.17.39.53.53 0 01-.4.17h-.55a6.09 6.09 0 01-1.14-.11 3.7 3.7 0 01-1.09-.39 2.42 2.42 0 01-.82-.72A1.87 1.87 0 010 10.11V6.75h3.94a.56.56 0 010 1.13H1.13v2.23a.87.87 0 00.15.52 1.18 1.18 0 00.39.35 2 2 0 00.55.21 4.81 4.81 0 00.62.1h1.12a.57.57 0 01.56.56zM3.38 3.38a1 1 0 00-.09-.43 1.18 1.18 0 00-.61-.61 1 1 0 00-.86 0 1.21 1.21 0 00-.36.25 1.19 1.19 0 00-.25.36 1 1 0 00-.09.43 1 1 0 00.09.43 1.21 1.21 0 00.6.6 1 1 0 00.43.09 1 1 0 00.43-.09A1.19 1.19 0 003 4.16a1.21 1.21 0 00.25-.36 1 1 0 00.13-.42zm9 8.92a1.87 1.87 0 01-.32 1.12 2.38 2.38 0 01-.82.72 3.79 3.79 0 01-1.09.38 6.09 6.09 0 01-1.15.11 5.81 5.81 0 01-1.14-.12 3.88 3.88 0 01-1.09-.39A2.42 2.42 0 016 13.4a1.83 1.83 0 01-.33-1.11V5.63h6.75zm-1.13-10a2.12 2.12 0 01-.18.87 2.32 2.32 0 01-1.2 1.2 2.17 2.17 0 01-1.73 0 2.32 2.32 0 01-1.2-1.2 2.17 2.17 0 010-1.73A2.33 2.33 0 018.14.18a2.18 2.18 0 011.73 0 2.33 2.33 0 011.2 1.2 2.13 2.13 0 01.18.87zm0 10V6.75h-4.5v5.55a.83.83 0 00.25.62 1.67 1.67 0 00.59.36 3.16 3.16 0 00.73.17 6.09 6.09 0 00.68 0 6.1 6.1 0 00.68 0 3.16 3.16 0 00.73-.17 1.67 1.67 0 00.59-.36.83.83 0 00.25-.62zm-1.13-10a1 1 0 00-.12-.48 1.18 1.18 0 00-.61-.61 1 1 0 00-.86 0 1.21 1.21 0 00-.36.25 1.19 1.19 0 00-.17.36 1 1 0 00-.09.43 1 1 0 00.09.43 1.21 1.21 0 00.6.6 1 1 0 00.86 0A1.2 1.2 0 009.79 3a1.21 1.21 0 00.21-.32 1 1 0 00.13-.43zM18 3.38a2.12 2.12 0 01-.18.87 2.32 2.32 0 01-1.2 1.2 2.17 2.17 0 01-1.73 0 2.32 2.32 0 01-1.2-1.2 2.17 2.17 0 010-1.73 2.33 2.33 0 011.2-1.2 2.18 2.18 0 011.73 0 2.33 2.33 0 011.2 1.2 2.12 2.12 0 01.18.86zm0 6.73a1.87 1.87 0 01-.32 1.12 2.43 2.43 0 01-.82.72 3.71 3.71 0 01-1.09.39 6.09 6.09 0 01-1.14.11h-.56a.53.53 0 01-.4-.17.56.56 0 01.4-1h1.12a4.81 4.81 0 00.62-.1 2 2 0 00.55-.21 1.18 1.18 0 00.39-.35.87.87 0 00.15-.52V7.88h-2.83a.56.56 0 010-1.12H18zm-1.12-6.73a1 1 0 00-.09-.43 1.18 1.18 0 00-.61-.61 1 1 0 00-.43-.09 1 1 0 00-.43.09 1.19 1.19 0 00-.6.61 1 1 0 00-.09.43 1 1 0 00.09.43 1.21 1.21 0 00.6.6 1 1 0 00.43.09 1 1 0 00.43-.09 1.19 1.19 0 00.61-.6 1 1 0 00.09-.43z" fill="#fff" data-name="Layer 2"/></svg>