<svg xmlns="http://www.w3.org/2000/svg" viewBox="0 0 21.95 11.05"><defs><style>.cls-1{fill:#fff;}</style></defs><title>resources_developer-platform</title><g id="Layer_2" data-name="Layer 2"><g id="content"><path class="cls-1" d="M5.09,10.18a.56.56,0,0,1-.4-.17L.17,5.49a.57.57,0,0,1,0-.81L4.69.17a.58.58,0,0,1,.81,0A.57.57,0,0,1,5.5,1L1.39,5.09,5.5,9.21a.57.57,0,0,1-.4,1Z"/><path class="cls-1" d="M9.71,11H8.27l4-10.33h1.46Z"/><path class="cls-1" d="M16.85,10.18a.57.57,0,0,1-.4-1l4.11-4.12L16.45,1a.57.57,0,0,1,0-.81.58.58,0,0,1,.81,0l4.52,4.52a.57.57,0,0,1,0,.81L17.26,10A.56.56,0,0,1,16.85,10.18Z"/></g></g></svg>