<svg xmlns="http://www.w3.org/2000/svg" viewBox="0 0 16 16"><path d="M16 8a1.07 1.07 0 010 .26 2 2 0 01-.08.24 8 8 0 01-.81 1.5A9.05 9.05 0 0114 11.32a9.2 9.2 0 01-1.3 1.11 9 9 0 01-1.48.84 8.58 8.58 0 01-1.6.54 7.39 7.39 0 01-3.34 0 8.61 8.61 0 01-1.61-.54 9 9 0 01-1.48-.84 9.2 9.2 0 01-1.3-1.11A9 9 0 01.88 10a8 8 0 01-.77-1.5A1.84 1.84 0 010 8.26a1.08 1.08 0 010-.52 1.84 1.84 0 01.11-.24A8 8 0 01.88 6a9 9 0 011.07-1.32 9.2 9.2 0 011.3-1.11 9 9 0 011.48-.84 8.61 8.61 0 011.61-.54 7.39 7.39 0 013.34 0 8.58 8.58 0 011.6.54 9 9 0 011.48.84A9.2 9.2 0 0114 4.68 9.05 9.05 0 0115.11 6a8 8 0 01.77 1.49 2 2 0 01.08.24A1.07 1.07 0 0116 8zm-1 0a.29.29 0 000-.09A9.23 9.23 0 0013.8 6a8.32 8.32 0 00-1.61-1.55 7.62 7.62 0 00-2-1 6.74 6.74 0 00-4.46 0 7.65 7.65 0 00-2 1A8.57 8.57 0 001 7.91a.24.24 0 000 .17A9.23 9.23 0 002.19 10a8.34 8.34 0 001.61 1.57 7.62 7.62 0 002 1 6.74 6.74 0 004.46 0 7.66 7.66 0 002-1A8.58 8.58 0 0015 8.09.29.29 0 0015 8zm-4 0a2.85 2.85 0 01-.24 1.16 3.08 3.08 0 01-.65 1 3.11 3.11 0 01-1 .65 3 3 0 01-2.32 0 3.09 3.09 0 01-1.6-1.6 2.94 2.94 0 010-2.32 3.09 3.09 0 011.6-1.6 3 3 0 012.32 0 3.11 3.11 0 011 .65 3.08 3.08 0 01.65 1A2.85 2.85 0 0111 8zm-1 0a1.82 1.82 0 00-.16-.77 2.17 2.17 0 00-.44-.63 2.05 2.05 0 00-.64-.43 1.92 1.92 0 00-1.54 0 2.11 2.11 0 00-.64.43 2.08 2.08 0 00-.44.63 1.92 1.92 0 000 1.53 2.08 2.08 0 00.44.63 2.11 2.11 0 00.64.43 1.92 1.92 0 001.54 0 2.05 2.05 0 00.64-.43 2.17 2.17 0 00.44-.63A1.82 1.82 0 0010 8z" fill="#5759a7"/></svg>