<svg xmlns="http://www.w3.org/2000/svg" viewBox="0 0 16 16"><defs><style>.cls-1{fill:#5759a7;}</style></defs><title>see-example</title><g id="content"><path class="cls-1" d="M16,8a1.07,1.07,0,0,1,0,.26,2,2,0,0,1-.08.24A8,8,0,0,1,15.11,10,9.05,9.05,0,0,1,14,11.32a9.2,9.2,0,0,1-1.3,1.11,9,9,0,0,1-1.48.84,8.58,8.58,0,0,1-1.6.54,7.39,7.39,0,0,1-3.34,0,8.61,8.61,0,0,1-1.61-.54,9,9,0,0,1-1.48-.84,9.2,9.2,0,0,1-1.3-1.11A9,9,0,0,1,.88,10,8,8,0,0,1,.11,8.5,1.84,1.84,0,0,1,0,8.26a1.08,1.08,0,0,1,0-.52A1.84,1.84,0,0,1,.11,7.5,8,8,0,0,1,.88,6,9,9,0,0,1,1.95,4.68a9.2,9.2,0,0,1,1.3-1.11,9,9,0,0,1,1.48-.84,8.61,8.61,0,0,1,1.61-.54,7.39,7.39,0,0,1,3.34,0,8.58,8.58,0,0,1,1.6.54,9,9,0,0,1,1.48.84A9.2,9.2,0,0,1,14,4.68,9.05,9.05,0,0,1,15.11,6a8,8,0,0,1,.77,1.49,2,2,0,0,1,.08.24A1.07,1.07,0,0,1,16,8ZM15,8a.29.29,0,0,0,0-.09A9.23,9.23,0,0,0,13.8,6a8.32,8.32,0,0,0-1.61-1.55,7.62,7.62,0,0,0-2-1,6.74,6.74,0,0,0-4.46,0,7.65,7.65,0,0,0-2,1A8.57,8.57,0,0,0,1,7.91a.24.24,0,0,0,0,.17A9.23,9.23,0,0,0,2.19,10,8.34,8.34,0,0,0,3.8,11.57a7.62,7.62,0,0,0,2,1,6.74,6.74,0,0,0,4.46,0,7.66,7.66,0,0,0,2-1A8.58,8.58,0,0,0,15,8.09.29.29,0,0,0,15,8ZM11,8a2.85,2.85,0,0,1-.24,1.16,3.08,3.08,0,0,1-.65,1,3.11,3.11,0,0,1-1,.65,3,3,0,0,1-2.32,0,3.09,3.09,0,0,1-1.6-1.6,2.94,2.94,0,0,1,0-2.32,3.09,3.09,0,0,1,1.6-1.6,3,3,0,0,1,2.32,0,3.11,3.11,0,0,1,1,.65,3.08,3.08,0,0,1,.65,1A2.85,2.85,0,0,1,11,8ZM10,8a1.82,1.82,0,0,0-.16-.77,2.17,2.17,0,0,0-.44-.63,2.05,2.05,0,0,0-.64-.43,1.92,1.92,0,0,0-1.54,0,2.11,2.11,0,0,0-.64.43,2.08,2.08,0,0,0-.44.63,1.92,1.92,0,0,0,0,1.53,2.08,2.08,0,0,0,.44.63,2.11,2.11,0,0,0,.64.43,1.92,1.92,0,0,0,1.54,0,2.05,2.05,0,0,0,.64-.43,2.17,2.17,0,0,0,.44-.63A1.82,1.82,0,0,0,10,8Z"/></g></svg>