<svg xmlns="http://www.w3.org/2000/svg" viewBox="0 0 24 24"><path d="M24 4.5v15a4.51 4.51 0 01-4.5 4.5h-15a4.33 4.33 0 01-3.18-1.32A4.33 4.33 0 010 19.5v-15a4.33 4.33 0 011.32-3.18A4.33 4.33 0 014.5 0h15a4.34 4.34 0 013.18 1.32A4.34 4.34 0 0124 4.5zm-4 3a6.94 6.94 0 01-1.89.53 3.19 3.19 0 001.45-1.83 6.52 6.52 0 01-2.09.8 3.12 3.12 0 00-2.39-1 3.28 3.28 0 00-3.28 3.28 3 3 0 00.08.75A9.28 9.28 0 018.09 9a9.29 9.29 0 01-3-2.42 3.25 3.25 0 00-.45 1.66A3.09 3.09 0 006.06 11a3.86 3.86 0 01-1.56-.41 3.12 3.12 0 00.78 2.09 3.28 3.28 0 001.92 1.15 3 3 0 01-.8.13 4.34 4.34 0 01-.61-.06A3.33 3.33 0 007 15.52a3.12 3.12 0 001.9.66 6.48 6.48 0 01-4.08 1.41 6.3 6.3 0 01-.78 0A9.2 9.2 0 009 19a9.55 9.55 0 003.28-.55A8.45 8.45 0 0014.94 17a9.86 9.86 0 001.88-2.14 9.46 9.46 0 001.55-5.16 4.21 4.21 0 000-.42A6.37 6.37 0 0020 7.53z" fill="#fff" data-name="Layer 2"/></svg>