<svg xmlns="http://www.w3.org/2000/svg" viewBox="0 0 24 24"><defs><style>.cls-1{fill:#fff;}</style></defs><title>linkedin</title><g id="Layer_2" data-name="Layer 2"><g id="content"><path class="cls-1" d="M24,4.5v15A4.51,4.51,0,0,1,19.5,24H4.5a4.33,4.33,0,0,1-3.18-1.32A4.33,4.33,0,0,1,0,19.5V4.5A4.33,4.33,0,0,1,1.32,1.32,4.33,4.33,0,0,1,4.5,0h15a4.34,4.34,0,0,1,3.18,1.32A4.34,4.34,0,0,1,24,4.5ZM7.55,5.91A1.85,1.85,0,0,0,7,4.56,2,2,0,0,0,5.53,4a2.08,2.08,0,0,0-1.48.53,1.76,1.76,0,0,0-.57,1.34A1.79,1.79,0,0,0,4,7.24a2,2,0,0,0,1.45.54h0A2.06,2.06,0,0,0,7,7.24,1.78,1.78,0,0,0,7.55,5.91ZM3.7,20.09H7.31V9.25H3.7Zm13,0H20.3V13.88a5.19,5.19,0,0,0-1.14-3.64,3.91,3.91,0,0,0-3-1.23,3.63,3.63,0,0,0-3.27,1.83h0V9.25H9.3q0,1,0,10.84h3.61V14a2.58,2.58,0,0,1,.11-.87,2.42,2.42,0,0,1,.7-.93,1.77,1.77,0,0,1,1.16-.38q1.81,0,1.81,2.45Z"/></g></g></svg>