<svg xmlns="http://www.w3.org/2000/svg" viewBox="0 0 24 24"><defs><style>.cls-1{fill:#fff;}</style></defs><title>twitter</title><g id="Layer_2" data-name="Layer 2"><g id="content"><path class="cls-1" d="M24,4.5v15A4.51,4.51,0,0,1,19.5,24H4.5a4.33,4.33,0,0,1-3.18-1.32A4.33,4.33,0,0,1,0,19.5V4.5A4.33,4.33,0,0,1,1.32,1.32,4.33,4.33,0,0,1,4.5,0h15a4.34,4.34,0,0,1,3.18,1.32A4.34,4.34,0,0,1,24,4.5Zm-4,3a6.94,6.94,0,0,1-1.89.53,3.19,3.19,0,0,0,1.45-1.83,6.52,6.52,0,0,1-2.09.8,3.12,3.12,0,0,0-2.39-1A3.28,3.28,0,0,0,11.8,9.28a3,3,0,0,0,.08.75A9.28,9.28,0,0,1,8.09,9a9.29,9.29,0,0,1-3-2.42,3.25,3.25,0,0,0-.45,1.66A3.09,3.09,0,0,0,6.06,11a3.86,3.86,0,0,1-1.56-.41v0a3.12,3.12,0,0,0,.78,2.09A3.28,3.28,0,0,0,7.2,13.83a3,3,0,0,1-.8.13,4.34,4.34,0,0,1-.61-.06A3.33,3.33,0,0,0,7,15.52a3.12,3.12,0,0,0,1.9.66,6.48,6.48,0,0,1-4.08,1.41,6.3,6.3,0,0,1-.78,0A9.2,9.2,0,0,0,9,19a9.55,9.55,0,0,0,3.28-.55A8.45,8.45,0,0,0,14.94,17a9.86,9.86,0,0,0,1.88-2.14,9.46,9.46,0,0,0,1.55-5.16,4.21,4.21,0,0,0,0-.42A6.37,6.37,0,0,0,20,7.53Z"/></g></g></svg>