<svg xmlns="http://www.w3.org/2000/svg" viewBox="0 0 24 24"><defs><style>.cls-1{fill:#fff;}</style></defs><title>facebook</title><g id="Layer_2" data-name="Layer 2"><g id="content"><path class="cls-1" d="M19.5,0a4.34,4.34,0,0,1,3.18,1.32A4.34,4.34,0,0,1,24,4.5v15A4.51,4.51,0,0,1,19.5,24H16.56V14.7h3.11l.47-3.62H16.56V8.77a2,2,0,0,1,.37-1.31A1.82,1.82,0,0,1,18.36,7l1.91,0V3.77a21,21,0,0,0-2.78-.14,4.64,4.64,0,0,0-3.4,1.25,4.72,4.72,0,0,0-1.27,3.53v2.67H9.69V14.7h3.13V24H4.5a4.33,4.33,0,0,1-3.18-1.32A4.33,4.33,0,0,1,0,19.5V4.5A4.33,4.33,0,0,1,1.32,1.32,4.33,4.33,0,0,1,4.5,0Z"/></g></g></svg>