<svg xmlns="http://www.w3.org/2000/svg" viewBox="0 0 24 24"><path d="M24 4.5v15a4.51 4.51 0 01-4.5 4.5h-15a4.33 4.33 0 01-3.18-1.32A4.33 4.33 0 010 19.5v-15a4.33 4.33 0 011.32-3.18A4.33 4.33 0 014.5 0h15a4.34 4.34 0 013.18 1.32A4.34 4.34 0 0124 4.5zM7.55 5.91A1.85 1.85 0 007 4.56 2 2 0 005.53 4a2.08 2.08 0 00-1.48.53 1.76 1.76 0 00-.57 1.34A1.79 1.79 0 004 7.24a2 2 0 001.45.54A2.06 2.06 0 007 7.24a1.78 1.78 0 00.55-1.33zM3.7 20.09h3.61V9.25H3.7zm13 0h3.6v-6.21a5.19 5.19 0 00-1.14-3.64 3.91 3.91 0 00-3-1.23 3.63 3.63 0 00-3.27 1.83V9.25H9.3v10.84h3.61V14a2.58 2.58 0 01.11-.87 2.42 2.42 0 01.7-.93 1.77 1.77 0 011.16-.38q1.81 0 1.81 2.45z" fill="#fff" data-name="Layer 2"/></svg>