<?xml version="1.0" encoding="UTF-8"?>
<svg width="32px" height="32px" viewBox="0 0 32 32" version="1.1" xmlns="http://www.w3.org/2000/svg" xmlns:xlink="http://www.w3.org/1999/xlink">
    <title>Tab</title>
    <g id="Tab" stroke="none" stroke-width="1" fill="none" fill-rule="evenodd">
        <path d="M27.2,28.2666667 C27.5791667,28.2666667 27.9388889,28.19375 28.2791667,28.0479167 C28.6194444,27.9020833 28.9184028,27.7003472 29.1760417,27.4427083 C29.4336806,27.1850694 29.6354167,26.8861111 29.78125,26.5458333 C29.9270833,26.2055556 30,25.8458333 30,25.4666667 L30,25.4666667 L30,6.8 C30,6.42083333 29.9270833,6.06111111 29.78125,5.72083333 C29.6354167,5.38055556 29.4336806,5.08159722 29.1760417,4.82395833 C28.9184028,4.56631944 28.6194444,4.36458333 28.2791667,4.21875 C27.9388889,4.07291667 27.5791667,4 27.2,4 L27.2,4 L21.6,4 C21.3083333,4 21.0239583,4.04618056 20.746875,4.13854167 C20.4697917,4.23090278 20.2170139,4.35729167 19.9885417,4.51770833 C19.7600694,4.678125 19.5583333,4.87256944 19.3833333,5.10104167 C19.2083333,5.32951389 19.0722222,5.58472222 18.975,5.86666667 L18.975,5.86666667 L4.8,5.86666667 C4.41111111,5.86666667 4.04652778,5.93958333 3.70625,6.08541667 C3.36597222,6.23125 3.06944444,6.43298611 2.81666667,6.690625 C2.56388889,6.94826389 2.36458333,7.24722222 2.21875,7.5875 C2.07291667,7.92777778 2,8.2875 2,8.66666667 L2,8.66666667 L2,25.4666667 C2,25.8458333 2.07291667,26.2055556 2.21875,26.5458333 C2.36458333,26.8861111 2.56631944,27.1850694 2.82395833,27.4427083 C3.08159722,27.7003472 3.38055556,27.9020833 3.72083333,28.0479167 C4.06111111,28.19375 4.42083333,28.2666667 4.8,28.2666667 L4.8,28.2666667 L27.2,28.2666667 Z M27.2,26.4 L4.8,26.4 C4.54722222,26.4 4.32847222,26.3076389 4.14375,26.1229167 C3.95902778,25.9381944 3.86666667,25.7194444 3.86666667,25.4666667 L3.86666667,25.4666667 L3.86666667,13.3333333 L20.6666667,13.3333333 L20.6666667,6.8 C20.6666667,6.54722222 20.7590278,6.32847222 20.94375,6.14375 C21.1284722,5.95902778 21.3472222,5.86666667 21.6,5.86666667 L21.6,5.86666667 L27.2,5.86666667 C27.4527778,5.86666667 27.6715278,5.95902778 27.85625,6.14375 C28.0409722,6.32847222 28.1333333,6.54722222 28.1333333,6.8 L28.1333333,6.8 L28.1333333,25.4666667 C28.1333333,25.7194444 28.0409722,25.9381944 27.85625,26.1229167 C27.6715278,26.3076389 27.4527778,26.4 27.2,26.4 L27.2,26.4 Z M7.6,11.4666667 L3.86666667,11.4666667 L3.86666667,8.66666667 C3.86666667,8.41388889 3.95902778,8.19513889 4.14375,8.01041667 C4.32847222,7.82569444 4.54722222,7.73333333 4.8,7.73333333 L4.8,7.73333333 L7.6,7.73333333 L7.6,11.4666667 Z M13.2,11.4666667 L9.46666667,11.4666667 L9.46666667,7.73333333 L13.2,7.73333333 L13.2,11.4666667 Z M18.8,11.4666667 L15.0666667,11.4666667 L15.0666667,7.73333333 L18.8,7.73333333 L18.8,11.4666667 Z" id="" fill="#6264A7" fill-rule="nonzero"></path>
    </g>
</svg>