<svg xmlns="http://www.w3.org/2000/svg" viewBox="0 0 400 140">
  <defs>
    <style>
      .cls-1, .cls-3, .cls-5, .cls-6, .cls-8 {
        fill: none;
      }

      .cls-1, .cls-3 {
        stroke: #757575;
      }

      .cls-1, .cls-11, .cls-3, .cls-5, .cls-8, .cls-9 {
        stroke-miterlimit: 10;
      }

      .cls-2 {
        fill: #757575;
      }

      .cls-11, .cls-3, .cls-5, .cls-8, .cls-9 {
        stroke-width: 2px;
      }

      .cls-4 {
        fill: #556a8a;
      }

      .cls-5 {
        stroke: #2bc7f4;
      }

      .cls-7 {
        fill: #868787;
      }

      .cls-11, .cls-8 {
        stroke: #556a8a;
      }

      .cls-9 {
        fill: #f1f2f2;
        stroke: #bad80a;
      }

      .cls-10 {
        fill: #008a00;
      }

      .cls-11, .cls-13 {
        fill: #fff;
      }

      .cls-12 {
        fill: #2bc7f4;
      }

      .cls-14 {
        fill: #55d2f6;
      }

      .cls-15 {
        fill: #e5e5e5;
      }

      .cls-16, .cls-18 {
        fill: #5558af;
      }

      .cls-16 {
        fill-rule: evenodd;
      }

      .cls-17 {
        fill: #7779bd;
      }
    </style>
  </defs>
  <title>team-services-sdk</title>
  <g id="ICONS">
    <g>
      <g>
        <g>
          <g>
            <g>
              <polyline class="cls-1" points="197.42 23.45 204.33 16.55 247.27 16.55 253.86 23.13"/>
              <line class="cls-1" x1="213.5" y1="22.29" x2="213.5" y2="16.79"/>
              <line class="cls-1" x1="207.5" y1="22.29" x2="207.5" y2="16.79"/>
              <line class="cls-1" x1="220.5" y1="22.25" x2="220.5" y2="16.75"/>
              <line class="cls-1" x1="234.5" y1="22.25" x2="234.5" y2="16.75"/>
              <line class="cls-1" x1="227.5" y1="22.25" x2="227.5" y2="16.75"/>
              <line class="cls-1" x1="241.5" y1="22.25" x2="241.5" y2="16.75"/>
              <polygon class="cls-2" points="187.25 9.07 188.31 8.76 193.05 22.36 191.68 22.36 187.25 9.07"/>
              <line class="cls-3" x1="187" y1="9.5" x2="187" y2="24"/>
              <path class="cls-2" d="M188.47,9.07a.85.85,0,0,1-.92.76.76.76,0,1,1,0-1.53.85.85,0,0,1,.92.76"/>
              <polygon class="cls-2" points="195.41 33 194.5 33 190.31 36.82 186.14 33 185.31 33 185.31 33.59 189.57 37.5 185.31 41.41 185.31 42 186.14 42 190.31 38.18 194.5 42 195.41 42 195.41 41.47 191.05 37.5 195.41 33.53 195.41 33"/>
              <rect class="cls-2" x="185" y="32" width="1" height="95"/>
              <rect class="cls-2" x="195" y="33" width="1" height="93"/>
              <g>
                <line class="cls-1" x1="185.41" y1="43" x2="195.41" y2="52"/>
                <line class="cls-1" x1="195.41" y1="43" x2="185.41" y2="52"/>
              </g>
              <g>
                <line class="cls-1" x1="195.41" y1="62" x2="185.41" y2="53"/>
                <line class="cls-1" x1="195.41" y1="53" x2="185.41" y2="62"/>
              </g>
              <g>
                <line class="cls-1" x1="185.41" y1="63" x2="195.41" y2="72"/>
                <line class="cls-1" x1="195.41" y1="63" x2="185.41" y2="72"/>
              </g>
              <g>
                <line class="cls-1" x1="185.41" y1="73" x2="195.41" y2="82"/>
                <line class="cls-1" x1="195.41" y1="73" x2="185.41" y2="82"/>
              </g>
              <g>
                <line class="cls-1" x1="185.41" y1="83" x2="195.41" y2="92"/>
                <line class="cls-1" x1="195.41" y1="83" x2="185.41" y2="92"/>
              </g>
              <g>
                <line class="cls-1" x1="185.41" y1="93" x2="195.41" y2="102"/>
                <line class="cls-1" x1="195.41" y1="93" x2="185.41" y2="102"/>
              </g>
              <g>
                <line class="cls-1" x1="185.41" y1="103" x2="195.41" y2="112"/>
                <line class="cls-1" x1="195.41" y1="103" x2="185.41" y2="112"/>
              </g>
              <polyline class="cls-1" points="207.41 17 213.91 22 220.91 17 227.91 22 234.91 17 241.91 22 247.41 17"/>
              <rect class="cls-4" x="168.41" y="22.02" width="101" height="1.96"/>
              <path class="cls-4" d="M264.71,23.11a.71.71,0,0,0-.7.61V24H258.8v-.28a.7.7,0,0,0-1.4,0V28h8V23.72A.71.71,0,0,0,264.71,23.11Z"/>
              <polyline class="cls-1" points="170.96 21.11 187.55 9.37 234.02 16.56"/>
              <rect class="cls-4" x="167" y="20" width="6" height="11"/>
              <line class="cls-1" x1="185.41" y1="52.5" x2="195.41" y2="52.5"/>
              <line class="cls-1" x1="185.41" y1="42.5" x2="195.41" y2="42.5"/>
              <line class="cls-1" x1="185.41" y1="32.5" x2="195.41" y2="32.5"/>
              <polygon class="cls-4" points="197.44 23 183.09 23 183.09 33 197.44 33 200 28 197.44 23"/>
              <line class="cls-5" x1="190" y1="25" x2="190" y2="31"/>
              <line class="cls-5" x1="194" y1="25" x2="194" y2="31"/>
              <line class="cls-1" x1="185.41" y1="62.5" x2="195.41" y2="62.5"/>
              <line class="cls-1" x1="185.41" y1="72.5" x2="195.41" y2="72.5"/>
              <line class="cls-1" x1="185.41" y1="82.5" x2="195.41" y2="82.5"/>
              <line class="cls-1" x1="185.41" y1="92.5" x2="195.41" y2="92.5"/>
              <line class="cls-1" x1="185.41" y1="102.5" x2="195.41" y2="102.5"/>
              <g>
                <line class="cls-1" x1="185.41" y1="111.5" x2="195.41" y2="120.5"/>
                <line class="cls-1" x1="195.41" y1="111.5" x2="185.41" y2="120.5"/>
              </g>
              <line class="cls-1" x1="185.41" y1="111.5" x2="195.41" y2="111.5"/>
              <line class="cls-1" x1="185.41" y1="121.5" x2="195.41" y2="121.5"/>
            </g>
            <rect class="cls-6" x="153.41" y="2" width="111" height="136"/>
          </g>
          <polygon class="cls-7" points="214.41 133 166.41 133 168.99 127 171.56 121 209.26 121 211.84 127 214.41 133"/>
          <polygon class="cls-4" points="214.41 133 166.41 133 168.99 127 211.84 127 214.41 133"/>
        </g>
        <line class="cls-8" x1="262" y1="26" x2="262" y2="62"/>
      </g>
      <g>
        <path class="cls-9" d="M183.44,108H125.72c-5.53,0-9,0-11.59-.27l-.5,0a18.27,18.27,0,0,1-5.87-1.61l-.3-.13A19.85,19.85,0,0,1,120,68.55a21.57,21.57,0,0,1,20.11-14.32,21,21,0,0,1,9.32,2.18,20.78,20.78,0,0,1,17.66-9.92c10.29,0,19.12,7.87,20.73,18.18a22,22,0,0,1-.18,42.84A18,18,0,0,1,183.44,108Z"/>
        <path class="cls-10" d="M163.33,95.62h-2.4V97.7a1.57,1.57,0,0,0,.76.22h.76a2.56,2.56,0,0,0,.87-.22Z"/>
        <path class="cls-11" d="M164,69.38a6.71,6.71,0,0,0-4.08-6.11V67.7L157,69.94l-2.92-2.24V63.27A6.71,6.71,0,0,0,150,69.38,7.39,7.39,0,0,0,154,76V95a2.49,2.49,0,0,0,2.42,2.38H157A2.15,2.15,0,0,0,159,95V76A7.43,7.43,0,0,0,164,69.38Z"/>
        <g>
          <path class="cls-12" d="M175,82h-3V70.56L174,68l-2-5h-2l-2,5,2,2.56V82h-3v4h1.71A2.18,2.18,0,0,1,167,88v7c0,1.85,1.12,3.08,2.29,3.08h3.43c1.17,0,2.29-1.51,2.29-3.36V87.92A2.08,2.08,0,0,1,173.29,86H175Z"/>
          <rect class="cls-13" x="169" y="87" width="1" height="9.52"/>
          <rect class="cls-13" x="172" y="87" width="1" height="9.52"/>
        </g>
        <g>
          <path class="cls-13" d="M147.74,90.2c-.32-.81-1.2-2.81-2.18-5-1.4-3.15-3-6.68-3.53-7.86V68a4.21,4.21,0,0,0,.73-2.06,1,1,0,0,0-1.09-1h-6.53a1,1,0,0,0-1.09,1,4.21,4.21,0,0,0,.73,2.06v9.27c-.54,1.18-2.13,4.71-3.53,7.86-1,2.22-1.86,4.22-2.18,5a6,6,0,0,0-.08,4.4,3.14,3.14,0,0,0,2.65,2.27h13.53a3.14,3.14,0,0,0,2.65-2.27A6,6,0,0,0,147.74,90.2Z"/>
          <path class="cls-14" d="M146.37,85h-14.9c-1.18,2.57-1.89,4.16-2.17,4.84a5.54,5.54,0,0,0-.09,4.2,3.07,3.07,0,0,0,2.62,2.16H146A3.07,3.07,0,0,0,148.63,94a5.54,5.54,0,0,0-.09-4.2C148.26,89.16,147.55,87.57,146.37,85Z"/>
          <path class="cls-8" d="M147.74,90.2c-.32-.81-1.2-2.81-2.18-5-1.4-3.15-3-7-3.57-8.17V68a3.89,3.89,0,0,0,.76-2,1,1,0,0,0-1.09-1h-6.53a1,1,0,0,0-1.09,1,3.53,3.53,0,0,0,.94,2v9c-.54,1.18-2.35,5-3.75,8.17-1,2.22-1.86,4.22-2.18,5a6,6,0,0,0-.08,4.4,3.14,3.14,0,0,0,2.65,2.27h13.53a3.14,3.14,0,0,0,2.65-2.27A6,6,0,0,0,147.74,90.2Z"/>
          <path class="cls-15" d="M140.62,67.21h-5c-.17,0-.31-.23-.31-.51h0c0-.28.14-.51.31-.51h5c.17,0,.31.23.31.51h0C140.93,67,140.79,67.21,140.62,67.21Z"/>
        </g>
        <path class="cls-16" d="M162.82,88H143.18A2.15,2.15,0,0,0,141,90.17v6.72a2.22,2.22,0,0,0,2.18,2.24h19.64A2.22,2.22,0,0,0,165,96.89V90.17A2.15,2.15,0,0,0,162.82,88Zm.18,6H143l0-4h20Z"/>
        <path class="cls-16" d="M184,95.77V107H123V95.77a3.37,3.37,0,0,1,3.36-3.36h54.32A3.33,3.33,0,0,1,184,95.77Z"/>
        <path class="cls-17" d="M184,95.36l0,.64-61-.08v-.56A3.37,3.37,0,0,1,126.36,92h54.32A3.37,3.37,0,0,1,184,95.36Z"/>
      </g>
      <rect class="cls-17" x="231" y="65" width="43" height="20"/>
      <rect class="cls-18" x="277" y="65" width="20" height="20"/>
      <rect class="cls-18" x="231" y="88" width="20" height="20"/>
      <rect class="cls-17" x="254" y="88" width="20" height="20"/>
      <rect class="cls-18" x="277" y="88" width="20" height="20"/>
    </g>
  </g>
</svg>
